<svg width="1056" height="636" viewBox="0 0 1056 636" fill="none" xmlns="http://www.w3.org/2000/svg">
<rect width="1056" height="636" fill="white"/>
<path fill-rule="evenodd" clip-rule="evenodd" d="M48 48H1008V588H48V48Z" fill="white"/>
<path fill-rule="evenodd" clip-rule="evenodd" d="M59.7953 184.239H996.205V577.688H59.7953V184.239Z" fill="#F9F9F9"/>
<path fill-rule="evenodd" clip-rule="evenodd" d="M59.7953 184.239H996.205V577.688H59.7953V184.239Z" stroke="#B56259" stroke-width="4" stroke-miterlimit="10" stroke-linejoin="round"/>
<path fill-rule="evenodd" clip-rule="evenodd" d="M352.06 286.535H706.864V559.323H352.06V286.535Z" fill="white"/>
<path fill-rule="evenodd" clip-rule="evenodd" d="M352.06 286.535H706.864V559.323H352.06V286.535Z" stroke="#4183C4" stroke-width="4" stroke-miterlimit="10" stroke-linejoin="round"/>
<path fill-rule="evenodd" clip-rule="evenodd" d="M458.929 62.1337C458.929 57.1442 462.974 53.0994 467.963 53.0994H588.037C590.433 53.0994 592.731 54.0512 594.425 55.7455C596.119 57.4397 597.071 59.7376 597.071 62.1337V98.2698C597.071 103.259 593.026 107.304 588.037 107.304H467.963C462.974 107.304 458.929 103.259 458.929 98.2698V62.1337Z" fill="#4183C4"/>
<path d="M489.529 86.4448V84.1479L482.357 81.3823L481.732 81.1636L482.357 80.9761L489.529 78.1636V75.8667L479.592 80.2886V82.0073L489.529 86.4448ZM502.182 84.3198L503.525 88.7417H505.682L500.275 71.6792H498.447L492.947 88.7417H495.119L496.479 84.3198H502.182ZM497.072 82.4292L499.354 75.0229L501.604 82.4292H497.072ZM508.428 93.6167H510.6V87.5229C510.756 87.6896 510.923 87.8459 511.1 87.9917C511.277 88.1375 511.469 88.2677 511.678 88.3823C512.011 88.5698 512.386 88.7157 512.803 88.8198C513.219 88.924 513.673 88.9761 514.162 88.9761C514.954 88.9761 515.657 88.8146 516.271 88.4917C516.896 88.1584 517.423 87.7 517.85 87.1167C518.266 86.5438 518.584 85.8667 518.803 85.0854C519.021 84.2938 519.131 83.4448 519.131 82.5386V82.2886C519.131 81.3511 519.021 80.4865 518.803 79.6948C518.584 78.8927 518.266 78.2104 517.85 77.6479C517.423 77.075 516.896 76.6271 516.271 76.3042C515.646 75.9813 514.928 75.8198 514.115 75.8198C513.657 75.8198 513.225 75.8719 512.818 75.9761C512.423 76.0698 512.058 76.2104 511.725 76.3979C511.495 76.5229 511.277 76.674 511.068 76.8511C510.87 77.0282 510.683 77.2261 510.506 77.4448L510.412 76.0542H508.428V93.6167ZM516.975 82.2886V82.5386C516.975 83.1532 516.902 83.7417 516.756 84.3042C516.62 84.8667 516.412 85.3667 516.131 85.8042C515.85 86.2313 515.49 86.575 515.053 86.8354C514.615 87.0854 514.1 87.2104 513.506 87.2104C513.131 87.2104 512.787 87.1636 512.475 87.0698C512.162 86.9761 511.881 86.8459 511.631 86.6792C511.412 86.5334 511.214 86.3615 511.037 86.1636C510.87 85.9552 510.725 85.7365 510.6 85.5073V79.3979C510.745 79.1375 510.912 78.8979 511.1 78.6792C511.298 78.4604 511.521 78.2729 511.771 78.1167C512.001 77.9709 512.256 77.8615 512.537 77.7886C512.829 77.7052 513.141 77.6636 513.475 77.6636C514.089 77.6636 514.615 77.7886 515.053 78.0386C515.49 78.2886 515.85 78.6271 516.131 79.0542C516.412 79.4813 516.62 79.9761 516.756 80.5386C516.902 81.0907 516.975 81.674 516.975 82.2886ZM522.83 93.6167H525.002V87.5229C525.158 87.6896 525.325 87.8459 525.502 87.9917C525.679 88.1375 525.872 88.2677 526.08 88.3823C526.413 88.5698 526.788 88.7157 527.205 88.8198C527.622 88.924 528.075 88.9761 528.564 88.9761C529.356 88.9761 530.059 88.8146 530.674 88.4917C531.299 88.1584 531.825 87.7 532.252 87.1167C532.669 86.5438 532.986 85.8667 533.205 85.0854C533.424 84.2938 533.533 83.4448 533.533 82.5386V82.2886C533.533 81.3511 533.424 80.4865 533.205 79.6948C532.986 78.8927 532.669 78.2104 532.252 77.6479C531.825 77.075 531.299 76.6271 530.674 76.3042C530.049 75.9813 529.33 75.8198 528.518 75.8198C528.059 75.8198 527.627 75.8719 527.221 75.9761C526.825 76.0698 526.46 76.2104 526.127 76.3979C525.898 76.5229 525.679 76.674 525.471 76.8511C525.273 77.0282 525.085 77.2261 524.908 77.4448L524.814 76.0542H522.83V93.6167ZM531.377 82.2886V82.5386C531.377 83.1532 531.304 83.7417 531.158 84.3042C531.023 84.8667 530.814 85.3667 530.533 85.8042C530.252 86.2313 529.893 86.575 529.455 86.8354C529.018 87.0854 528.502 87.2104 527.908 87.2104C527.533 87.2104 527.189 87.1636 526.877 87.0698C526.564 86.9761 526.283 86.8459 526.033 86.6792C525.814 86.5334 525.617 86.3615 525.439 86.1636C525.273 85.9552 525.127 85.7365 525.002 85.5073V79.3979C525.148 79.1375 525.314 78.8979 525.502 78.6792C525.7 78.4604 525.924 78.2729 526.174 78.1167C526.403 77.9709 526.658 77.8615 526.939 77.7886C527.231 77.7052 527.544 77.6636 527.877 77.6636C528.492 77.6636 529.018 77.7886 529.455 78.0386C529.893 78.2886 530.252 78.6271 530.533 79.0542C530.814 79.4813 531.023 79.9761 531.158 80.5386C531.304 81.0907 531.377 81.674 531.377 82.2886ZM554.51 90.2104L561.619 71.6792H559.682L552.557 90.2104H554.51ZM566.1 86.4292L576.443 81.9917V80.2729L566.1 75.8511V78.0854L573.678 80.8979L574.381 81.1167L573.678 81.3198L566.1 84.1792V86.4292Z" fill="#F9F9F9"/>
<path fill-rule="evenodd" clip-rule="evenodd" d="M386.362 164.693C386.362 159.703 390.407 155.658 395.397 155.658H660.604C663 155.658 665.297 156.61 666.992 158.305C668.686 159.999 669.638 162.297 669.638 164.693V200.829C669.638 205.818 665.593 209.863 660.604 209.863H395.397C390.407 209.863 386.362 205.818 386.362 200.829V164.693Z" fill="#B56259"/>
<path d="M417.518 189.004V186.707L410.346 183.941L409.721 183.723L410.346 183.535L417.518 180.723V178.426L407.58 182.848V184.566L417.518 189.004ZM430.951 186.988C430.951 187.457 430.847 187.863 430.639 188.207C430.441 188.54 430.18 188.816 429.857 189.035C429.545 189.264 429.18 189.431 428.764 189.535C428.357 189.639 427.941 189.691 427.514 189.691C426.982 189.691 426.493 189.618 426.045 189.473C425.597 189.327 425.201 189.113 424.857 188.832C424.514 188.551 424.232 188.207 424.014 187.801C423.795 187.384 423.649 186.91 423.576 186.379H421.373C421.394 187.108 421.555 187.775 421.857 188.379C422.16 188.973 422.566 189.493 423.076 189.941C423.66 190.452 424.342 190.848 425.123 191.129C425.904 191.4 426.701 191.535 427.514 191.535C428.201 191.535 428.883 191.441 429.561 191.254C430.238 191.056 430.847 190.764 431.389 190.379C431.93 190.004 432.368 189.535 432.701 188.973C433.045 188.4 433.217 187.728 433.217 186.957C433.217 186.207 433.055 185.546 432.732 184.973C432.42 184.389 432.008 183.895 431.498 183.488C430.967 183.061 430.383 182.712 429.748 182.441C429.123 182.16 428.493 181.921 427.857 181.723C427.472 181.608 427.061 181.473 426.623 181.316C426.196 181.16 425.8 180.962 425.436 180.723C425.061 180.493 424.748 180.212 424.498 179.879C424.258 179.535 424.139 179.113 424.139 178.613C424.139 178.165 424.227 177.77 424.404 177.426C424.592 177.082 424.842 176.79 425.154 176.551C425.456 176.322 425.805 176.15 426.201 176.035C426.597 175.91 427.003 175.848 427.42 175.848C427.93 175.848 428.389 175.931 428.795 176.098C429.212 176.254 429.566 176.478 429.857 176.77C430.16 177.061 430.399 177.41 430.576 177.816C430.753 178.212 430.873 178.655 430.936 179.145H433.17C433.149 178.363 432.977 177.66 432.654 177.035C432.342 176.4 431.92 175.858 431.389 175.41C430.857 174.962 430.248 174.618 429.561 174.379C428.873 174.129 428.16 174.004 427.42 174.004C426.743 174.004 426.071 174.108 425.404 174.316C424.748 174.525 424.154 174.827 423.623 175.223C423.102 175.618 422.68 176.108 422.357 176.691C422.035 177.264 421.873 177.921 421.873 178.66C421.873 179.389 422.035 180.025 422.357 180.566C422.68 181.108 423.102 181.582 423.623 181.988C424.123 182.374 424.686 182.707 425.311 182.988C425.936 183.259 426.545 183.493 427.139 183.691C427.555 183.827 427.988 183.978 428.436 184.145C428.883 184.301 429.295 184.504 429.67 184.754C430.045 185.004 430.352 185.311 430.592 185.676C430.831 186.03 430.951 186.467 430.951 186.988ZM441.557 175.551H439.385V178.613H436.057V180.301H439.385V187.191C439.385 187.973 439.484 188.639 439.682 189.191C439.89 189.733 440.176 190.176 440.541 190.52C440.895 190.874 441.317 191.134 441.807 191.301C442.296 191.457 442.822 191.535 443.385 191.535C443.718 191.535 444.057 191.52 444.4 191.488C444.744 191.457 445.067 191.41 445.369 191.348C445.671 191.296 445.952 191.228 446.213 191.145C446.473 191.061 446.692 190.962 446.869 190.848L446.557 189.316C446.432 189.348 446.265 189.384 446.057 189.426C445.848 189.467 445.624 189.509 445.385 189.551C445.145 189.592 444.9 189.629 444.65 189.66C444.4 189.681 444.161 189.691 443.932 189.691C443.609 189.691 443.301 189.655 443.01 189.582C442.729 189.499 442.479 189.358 442.26 189.16C442.041 188.973 441.869 188.723 441.744 188.41C441.619 188.087 441.557 187.681 441.557 187.191V180.301H446.385V178.613H441.557V175.551V175.551ZM450.225 184.848V185.098C450.225 186.014 450.355 186.863 450.615 187.645C450.886 188.426 451.271 189.103 451.771 189.676C452.261 190.259 452.86 190.717 453.568 191.051C454.287 191.374 455.094 191.535 455.99 191.535C456.886 191.535 457.688 191.374 458.396 191.051C459.105 190.717 459.709 190.259 460.209 189.676C460.709 189.103 461.089 188.426 461.35 187.645C461.62 186.863 461.756 186.014 461.756 185.098V184.848C461.756 183.931 461.62 183.082 461.35 182.301C461.089 181.509 460.709 180.827 460.209 180.254C459.709 179.671 459.1 179.212 458.381 178.879C457.673 178.546 456.87 178.379 455.975 178.379C455.079 178.379 454.277 178.546 453.568 178.879C452.86 179.212 452.261 179.671 451.771 180.254C451.271 180.827 450.886 181.509 450.615 182.301C450.355 183.082 450.225 183.931 450.225 184.848ZM452.381 185.098V184.848C452.381 184.223 452.454 183.629 452.6 183.066C452.756 182.504 452.985 182.004 453.287 181.566C453.589 181.139 453.959 180.801 454.396 180.551C454.844 180.29 455.37 180.16 455.975 180.16C456.579 180.16 457.105 180.29 457.553 180.551C458.001 180.801 458.376 181.139 458.678 181.566C458.98 182.004 459.204 182.504 459.35 183.066C459.506 183.629 459.584 184.223 459.584 184.848V185.098C459.584 185.723 459.506 186.322 459.35 186.895C459.204 187.457 458.985 187.952 458.693 188.379C458.391 188.806 458.011 189.145 457.553 189.395C457.105 189.645 456.584 189.77 455.99 189.77C455.396 189.77 454.87 189.645 454.412 189.395C453.964 189.145 453.589 188.806 453.287 188.379C452.985 187.952 452.756 187.457 452.6 186.895C452.454 186.322 452.381 185.723 452.381 185.098ZM470.627 189.77C469.95 189.77 469.382 189.639 468.924 189.379C468.465 189.108 468.101 188.754 467.83 188.316C467.549 187.879 467.346 187.389 467.221 186.848C467.106 186.306 467.049 185.759 467.049 185.207V184.707C467.049 184.165 467.106 183.624 467.221 183.082C467.346 182.54 467.549 182.051 467.83 181.613C468.111 181.186 468.481 180.837 468.939 180.566C469.398 180.296 469.96 180.16 470.627 180.16C471.064 180.16 471.471 180.238 471.846 180.395C472.231 180.54 472.559 180.743 472.83 181.004C473.111 181.254 473.33 181.551 473.486 181.895C473.643 182.238 473.726 182.598 473.736 182.973H475.783C475.783 182.337 475.653 181.738 475.393 181.176C475.143 180.613 474.788 180.124 474.33 179.707C473.872 179.301 473.325 178.978 472.689 178.738C472.064 178.499 471.377 178.379 470.627 178.379C469.669 178.379 468.83 178.551 468.111 178.895C467.393 179.238 466.794 179.702 466.314 180.285C465.835 180.868 465.471 181.546 465.221 182.316C464.981 183.077 464.861 183.874 464.861 184.707V185.207C464.861 186.051 464.981 186.853 465.221 187.613C465.471 188.374 465.835 189.046 466.314 189.629C466.794 190.212 467.393 190.676 468.111 191.02C468.83 191.363 469.669 191.535 470.627 191.535C471.304 191.535 471.95 191.421 472.564 191.191C473.179 190.962 473.726 190.65 474.205 190.254C474.684 189.868 475.064 189.421 475.346 188.91C475.637 188.4 475.783 187.863 475.783 187.301H473.736C473.726 187.655 473.632 187.983 473.455 188.285C473.288 188.587 473.059 188.848 472.768 189.066C472.476 189.285 472.143 189.457 471.768 189.582C471.403 189.707 471.023 189.77 470.627 189.77ZM483.436 185.379L488.076 191.301H490.842L484.92 183.91L490.045 178.613H487.42L483.248 182.785L481.842 184.316V173.301H479.654V191.301H481.842V186.91L483.436 185.379ZM496.4 184.457H499.76C500.531 184.447 501.255 184.332 501.932 184.113C502.619 183.884 503.223 183.551 503.744 183.113C504.255 182.686 504.661 182.16 504.963 181.535C505.265 180.9 505.416 180.176 505.416 179.363C505.416 178.54 505.265 177.811 504.963 177.176C504.661 176.54 504.255 176.009 503.744 175.582C503.223 175.155 502.619 174.827 501.932 174.598C501.255 174.368 500.531 174.249 499.76 174.238H494.229V191.301H496.4V184.457V184.457ZM496.4 182.676V176.02H499.76C500.26 176.03 500.723 176.113 501.15 176.27C501.577 176.426 501.947 176.645 502.26 176.926C502.562 177.217 502.801 177.572 502.979 177.988C503.156 178.405 503.244 178.868 503.244 179.379C503.244 179.9 503.156 180.363 502.979 180.77C502.801 181.165 502.557 181.504 502.244 181.785C501.932 182.066 501.562 182.285 501.135 182.441C500.718 182.587 500.26 182.665 499.76 182.676H496.4ZM516.74 178.379C515.824 178.379 515.001 178.582 514.271 178.988C513.553 179.395 512.938 179.941 512.428 180.629L512.412 180.316L512.318 178.613H510.256V191.301H512.428V183.16C512.574 182.775 512.751 182.426 512.959 182.113C513.178 181.79 513.433 181.52 513.725 181.301C514.048 181.051 514.423 180.863 514.85 180.738C515.277 180.603 515.756 180.535 516.287 180.535C516.704 180.535 517.1 180.561 517.475 180.613C517.86 180.655 518.261 180.723 518.678 180.816L518.975 178.691C518.756 178.598 518.428 178.525 517.99 178.473C517.563 178.41 517.146 178.379 516.74 178.379ZM522.236 184.848V185.098C522.236 186.014 522.367 186.863 522.627 187.645C522.898 188.426 523.283 189.103 523.783 189.676C524.273 190.259 524.872 190.717 525.58 191.051C526.299 191.374 527.106 191.535 528.002 191.535C528.898 191.535 529.7 191.374 530.408 191.051C531.117 190.717 531.721 190.259 532.221 189.676C532.721 189.103 533.101 188.426 533.361 187.645C533.632 186.863 533.768 186.014 533.768 185.098V184.848C533.768 183.931 533.632 183.082 533.361 182.301C533.101 181.509 532.721 180.827 532.221 180.254C531.721 179.671 531.111 179.212 530.393 178.879C529.684 178.546 528.882 178.379 527.986 178.379C527.09 178.379 526.288 178.546 525.58 178.879C524.872 179.212 524.273 179.671 523.783 180.254C523.283 180.827 522.898 181.509 522.627 182.301C522.367 183.082 522.236 183.931 522.236 184.848ZM524.393 185.098V184.848C524.393 184.223 524.465 183.629 524.611 183.066C524.768 182.504 524.997 182.004 525.299 181.566C525.601 181.139 525.971 180.801 526.408 180.551C526.856 180.29 527.382 180.16 527.986 180.16C528.59 180.16 529.117 180.29 529.564 180.551C530.012 180.801 530.387 181.139 530.689 181.566C530.992 182.004 531.215 182.504 531.361 183.066C531.518 183.629 531.596 184.223 531.596 184.848V185.098C531.596 185.723 531.518 186.322 531.361 186.895C531.215 187.457 530.997 187.952 530.705 188.379C530.403 188.806 530.023 189.145 529.564 189.395C529.117 189.645 528.596 189.77 528.002 189.77C527.408 189.77 526.882 189.645 526.424 189.395C525.976 189.145 525.601 188.806 525.299 188.379C524.997 187.952 524.768 187.457 524.611 186.895C524.465 186.322 524.393 185.723 524.393 185.098ZM541.561 191.301H543.217L548.389 178.613H546.17L542.623 188.176L542.404 188.973L542.217 188.176L538.576 178.613H536.357L541.561 191.301ZM551.979 178.613V180.504H556.291V189.426H551.979V191.301H562.604V189.426H558.463V178.613H551.979ZM556.01 175.285C556.01 175.639 556.119 175.936 556.338 176.176C556.557 176.405 556.885 176.52 557.322 176.52C557.749 176.52 558.072 176.405 558.291 176.176C558.51 175.936 558.619 175.639 558.619 175.285C558.619 175.098 558.588 174.921 558.525 174.754C558.463 174.587 558.369 174.452 558.244 174.348C558.14 174.243 558.01 174.165 557.854 174.113C557.697 174.051 557.52 174.02 557.322 174.02C557.114 174.02 556.926 174.051 556.76 174.113C556.604 174.165 556.479 174.243 556.385 174.348C556.26 174.462 556.166 174.603 556.104 174.77C556.041 174.926 556.01 175.098 556.01 175.285ZM565.631 184.848V185.098C565.631 186.004 565.751 186.853 565.99 187.645C566.24 188.426 566.584 189.103 567.021 189.676C567.459 190.259 567.985 190.717 568.6 191.051C569.225 191.374 569.923 191.535 570.693 191.535C571.475 191.535 572.157 191.405 572.74 191.145C573.324 190.874 573.829 190.478 574.256 189.957L574.35 191.301H576.334V173.301H574.162V179.879C573.756 179.389 573.266 179.02 572.693 178.77C572.131 178.509 571.469 178.379 570.709 178.379C569.938 178.379 569.24 178.54 568.615 178.863C567.99 179.186 567.459 179.634 567.021 180.207C566.574 180.77 566.23 181.452 565.99 182.254C565.751 183.046 565.631 183.91 565.631 184.848V184.848ZM567.803 185.098V184.848C567.803 184.233 567.87 183.65 568.006 183.098C568.141 182.535 568.35 182.04 568.631 181.613C568.902 181.186 569.251 180.848 569.678 180.598C570.115 180.348 570.641 180.223 571.256 180.223C571.964 180.223 572.553 180.389 573.021 180.723C573.501 181.056 573.881 181.478 574.162 181.988V187.879C573.881 188.431 573.501 188.874 573.021 189.207C572.553 189.53 571.954 189.691 571.225 189.691C570.62 189.691 570.105 189.572 569.678 189.332C569.251 189.082 568.902 188.743 568.631 188.316C568.35 187.9 568.141 187.415 568.006 186.863C567.87 186.301 567.803 185.712 567.803 185.098ZM586.049 191.535C587.288 191.535 588.325 191.29 589.158 190.801C590.002 190.301 590.632 189.728 591.049 189.082L589.736 188.051C589.33 188.572 588.825 188.988 588.221 189.301C587.627 189.613 586.945 189.77 586.174 189.77C585.58 189.77 585.038 189.66 584.549 189.441C584.07 189.223 583.658 188.921 583.314 188.535C582.981 188.171 582.715 187.754 582.518 187.285C582.33 186.816 582.21 186.275 582.158 185.66V185.582H591.221V184.613C591.221 183.728 591.106 182.905 590.877 182.145C590.658 181.384 590.325 180.723 589.877 180.16C589.419 179.608 588.846 179.176 588.158 178.863C587.481 178.54 586.684 178.379 585.768 178.379C585.038 178.379 584.33 178.53 583.643 178.832C582.955 179.124 582.34 179.551 581.799 180.113C581.247 180.676 580.804 181.363 580.471 182.176C580.148 182.978 579.986 183.889 579.986 184.91V185.41C579.986 186.285 580.132 187.098 580.424 187.848C580.726 188.598 581.143 189.249 581.674 189.801C582.205 190.342 582.846 190.77 583.596 191.082C584.346 191.384 585.163 191.535 586.049 191.535ZM585.768 180.16C586.32 180.16 586.799 180.264 587.205 180.473C587.611 180.671 587.945 180.936 588.205 181.27C588.476 181.592 588.684 181.983 588.83 182.441C588.976 182.889 589.049 183.306 589.049 183.691V183.801H582.236C582.32 183.217 582.465 182.702 582.674 182.254C582.893 181.796 583.158 181.41 583.471 181.098C583.783 180.796 584.132 180.566 584.518 180.41C584.913 180.243 585.33 180.16 585.768 180.16ZM603.154 178.379C602.238 178.379 601.415 178.582 600.686 178.988C599.967 179.395 599.352 179.941 598.842 180.629L598.826 180.316L598.732 178.613H596.67V191.301H598.842V183.16C598.988 182.775 599.165 182.426 599.373 182.113C599.592 181.79 599.847 181.52 600.139 181.301C600.462 181.051 600.837 180.863 601.264 180.738C601.691 180.603 602.17 180.535 602.701 180.535C603.118 180.535 603.514 180.561 603.889 180.613C604.274 180.655 604.675 180.723 605.092 180.816L605.389 178.691C605.17 178.598 604.842 178.525 604.404 178.473C603.977 178.41 603.561 178.379 603.154 178.379ZM626.521 192.77L633.631 174.238H631.693L624.568 192.77H626.521ZM638.111 188.988L648.455 184.551V182.832L638.111 178.41V180.645L645.689 183.457L646.393 183.676L645.689 183.879L638.111 186.738V188.988Z" fill="#F9F9F9"/>
<path fill-rule="evenodd" clip-rule="evenodd" d="M83.8481 267.252C83.8481 262.262 87.8929 258.218 92.8824 258.218H299.318C301.714 258.218 304.012 259.169 305.706 260.864C307.4 262.558 308.352 264.856 308.352 267.252V303.388C308.352 308.377 304.307 312.422 299.318 312.422H92.8824C87.8929 312.422 83.8481 308.377 83.8481 303.388V267.252Z" fill="#4183C4"/>
<path d="M114.422 291.563V289.266L107.25 286.5L106.625 286.282L107.25 286.094L114.422 283.282V280.985L104.485 285.407V287.125L114.422 291.563ZM127.856 289.547C127.856 290.016 127.752 290.422 127.543 290.766C127.345 291.099 127.085 291.375 126.762 291.594C126.45 291.823 126.085 291.99 125.668 292.094C125.262 292.198 124.845 292.25 124.418 292.25C123.887 292.25 123.398 292.178 122.95 292.032C122.502 291.886 122.106 291.672 121.762 291.391C121.418 291.11 121.137 290.766 120.918 290.36C120.7 289.943 120.554 289.469 120.481 288.938H118.278C118.299 289.667 118.46 290.334 118.762 290.938C119.064 291.532 119.47 292.053 119.981 292.5C120.564 293.011 121.247 293.407 122.028 293.688C122.809 293.959 123.606 294.094 124.418 294.094C125.106 294.094 125.788 294 126.465 293.813C127.142 293.615 127.752 293.323 128.293 292.938C128.835 292.563 129.273 292.094 129.606 291.532C129.95 290.959 130.122 290.287 130.122 289.516C130.122 288.766 129.96 288.105 129.637 287.532C129.325 286.948 128.913 286.454 128.403 286.047C127.872 285.62 127.288 285.271 126.653 285C126.028 284.719 125.398 284.48 124.762 284.282C124.377 284.167 123.965 284.032 123.528 283.875C123.101 283.719 122.705 283.521 122.34 283.282C121.965 283.053 121.653 282.771 121.403 282.438C121.163 282.094 121.043 281.672 121.043 281.172C121.043 280.724 121.132 280.329 121.309 279.985C121.497 279.641 121.747 279.349 122.059 279.11C122.361 278.881 122.71 278.709 123.106 278.594C123.502 278.469 123.908 278.407 124.325 278.407C124.835 278.407 125.293 278.49 125.7 278.657C126.116 278.813 126.47 279.037 126.762 279.329C127.064 279.62 127.304 279.969 127.481 280.375C127.658 280.771 127.778 281.214 127.84 281.704H130.075C130.054 280.922 129.882 280.219 129.559 279.594C129.247 278.959 128.825 278.417 128.293 277.969C127.762 277.521 127.153 277.178 126.465 276.938C125.778 276.688 125.064 276.563 124.325 276.563C123.648 276.563 122.976 276.667 122.309 276.875C121.653 277.084 121.059 277.386 120.528 277.782C120.007 278.178 119.585 278.667 119.262 279.25C118.939 279.823 118.778 280.48 118.778 281.219C118.778 281.948 118.939 282.584 119.262 283.125C119.585 283.667 120.007 284.141 120.528 284.547C121.028 284.933 121.59 285.266 122.215 285.547C122.84 285.818 123.45 286.053 124.043 286.25C124.46 286.386 124.892 286.537 125.34 286.704C125.788 286.86 126.2 287.063 126.575 287.313C126.95 287.563 127.257 287.87 127.497 288.235C127.736 288.589 127.856 289.027 127.856 289.547ZM138.93 294.094C140.17 294.094 141.206 293.849 142.039 293.36C142.883 292.86 143.513 292.287 143.93 291.641L142.618 290.61C142.211 291.131 141.706 291.547 141.102 291.86C140.508 292.172 139.826 292.329 139.055 292.329C138.461 292.329 137.92 292.219 137.43 292C136.951 291.782 136.539 291.48 136.196 291.094C135.862 290.73 135.597 290.313 135.399 289.844C135.211 289.375 135.092 288.834 135.039 288.219V288.141H144.102V287.172C144.102 286.287 143.987 285.464 143.758 284.704C143.539 283.943 143.206 283.282 142.758 282.719C142.3 282.167 141.727 281.735 141.039 281.422C140.362 281.099 139.566 280.938 138.649 280.938C137.92 280.938 137.211 281.089 136.524 281.391C135.836 281.683 135.222 282.11 134.68 282.672C134.128 283.235 133.685 283.922 133.352 284.735C133.029 285.537 132.868 286.448 132.868 287.469V287.969C132.868 288.844 133.013 289.657 133.305 290.407C133.607 291.157 134.024 291.808 134.555 292.36C135.086 292.902 135.727 293.329 136.477 293.641C137.227 293.943 138.045 294.094 138.93 294.094ZM138.649 282.719C139.201 282.719 139.68 282.823 140.086 283.032C140.493 283.23 140.826 283.495 141.086 283.829C141.357 284.152 141.566 284.542 141.711 285C141.857 285.448 141.93 285.865 141.93 286.25V286.36H135.118C135.201 285.777 135.347 285.261 135.555 284.813C135.774 284.355 136.039 283.969 136.352 283.657C136.664 283.355 137.013 283.125 137.399 282.969C137.795 282.803 138.211 282.719 138.649 282.719ZM156.067 293.86H158.332V293.672C158.187 293.318 158.072 292.907 157.989 292.438C157.916 291.959 157.879 291.511 157.879 291.094V285.204C157.879 284.485 157.749 283.86 157.489 283.329C157.239 282.797 156.89 282.355 156.442 282C155.984 281.646 155.447 281.381 154.832 281.204C154.218 281.027 153.551 280.938 152.832 280.938C152.041 280.938 151.332 281.047 150.707 281.266C150.093 281.485 149.572 281.771 149.145 282.125C148.707 282.49 148.369 282.896 148.129 283.344C147.9 283.782 147.786 284.23 147.786 284.688H149.957C149.957 284.428 150.02 284.178 150.145 283.938C150.28 283.688 150.463 283.469 150.692 283.282C150.931 283.105 151.218 282.964 151.551 282.86C151.895 282.745 152.28 282.688 152.707 282.688C153.176 282.688 153.593 282.75 153.957 282.875C154.332 282.99 154.65 283.152 154.911 283.36C155.161 283.579 155.353 283.839 155.489 284.141C155.635 284.443 155.707 284.787 155.707 285.172V286.172H153.348C152.463 286.172 151.661 286.261 150.942 286.438C150.234 286.605 149.624 286.86 149.114 287.204C148.603 287.558 148.207 287.995 147.926 288.516C147.655 289.037 147.52 289.646 147.52 290.344C147.52 290.875 147.624 291.37 147.832 291.829C148.041 292.287 148.338 292.678 148.723 293C149.098 293.334 149.556 293.599 150.098 293.797C150.64 293.995 151.244 294.094 151.911 294.094C152.327 294.094 152.718 294.047 153.082 293.954C153.457 293.87 153.806 293.756 154.129 293.61C154.452 293.464 154.749 293.292 155.02 293.094C155.291 292.896 155.536 292.688 155.754 292.469C155.775 292.74 155.812 293 155.864 293.25C155.916 293.49 155.984 293.693 156.067 293.86ZM152.239 292.204C151.812 292.204 151.437 292.152 151.114 292.047C150.801 291.933 150.536 291.777 150.317 291.579C150.109 291.391 149.952 291.167 149.848 290.907C149.744 290.636 149.692 290.344 149.692 290.032C149.692 289.709 149.749 289.417 149.864 289.157C149.989 288.896 150.171 288.672 150.411 288.485C150.734 288.224 151.171 288.032 151.723 287.907C152.286 287.771 152.942 287.704 153.692 287.704H155.707V290.266C155.582 290.516 155.411 290.761 155.192 291C154.973 291.23 154.718 291.433 154.426 291.61C154.124 291.787 153.786 291.933 153.411 292.047C153.046 292.152 152.655 292.204 152.239 292.204ZM170.438 280.938C169.521 280.938 168.698 281.141 167.969 281.547C167.25 281.954 166.636 282.5 166.125 283.188L166.11 282.875L166.016 281.172H163.954V293.86H166.125V285.719C166.271 285.334 166.448 284.985 166.657 284.672C166.875 284.349 167.131 284.079 167.422 283.86C167.745 283.61 168.12 283.422 168.547 283.297C168.974 283.162 169.454 283.094 169.985 283.094C170.401 283.094 170.797 283.12 171.172 283.172C171.558 283.214 171.959 283.282 172.375 283.375L172.672 281.25C172.454 281.157 172.125 281.084 171.688 281.032C171.261 280.969 170.844 280.938 170.438 280.938ZM181.934 292.329C181.257 292.329 180.689 292.198 180.231 291.938C179.773 291.667 179.408 291.313 179.137 290.875C178.856 290.438 178.653 289.948 178.528 289.407C178.413 288.865 178.356 288.318 178.356 287.766V287.266C178.356 286.724 178.413 286.183 178.528 285.641C178.653 285.099 178.856 284.61 179.137 284.172C179.418 283.745 179.788 283.396 180.247 283.125C180.705 282.855 181.267 282.719 181.934 282.719C182.372 282.719 182.778 282.797 183.153 282.954C183.538 283.099 183.866 283.303 184.137 283.563C184.418 283.813 184.637 284.11 184.793 284.454C184.95 284.797 185.033 285.157 185.043 285.532H187.09C187.09 284.896 186.96 284.297 186.7 283.735C186.45 283.172 186.095 282.683 185.637 282.266C185.179 281.86 184.632 281.537 183.997 281.297C183.372 281.058 182.684 280.938 181.934 280.938C180.976 280.938 180.137 281.11 179.418 281.454C178.7 281.797 178.101 282.261 177.622 282.844C177.142 283.428 176.778 284.105 176.528 284.875C176.288 285.636 176.168 286.433 176.168 287.266V287.766C176.168 288.61 176.288 289.412 176.528 290.172C176.778 290.933 177.142 291.605 177.622 292.188C178.101 292.771 178.7 293.235 179.418 293.579C180.137 293.922 180.976 294.094 181.934 294.094C182.611 294.094 183.257 293.98 183.872 293.75C184.486 293.521 185.033 293.209 185.512 292.813C185.991 292.428 186.372 291.98 186.653 291.469C186.944 290.959 187.09 290.422 187.09 289.86H185.043C185.033 290.214 184.939 290.542 184.762 290.844C184.595 291.146 184.366 291.407 184.075 291.625C183.783 291.844 183.45 292.016 183.075 292.141C182.71 292.266 182.33 292.329 181.934 292.329ZM193.102 283.063V275.86H190.946V293.86H193.102V284.641C193.258 284.391 193.435 284.167 193.633 283.969C193.842 283.761 194.06 283.579 194.289 283.422C194.592 283.214 194.914 283.058 195.258 282.954C195.612 282.839 195.987 282.782 196.383 282.782C196.852 282.771 197.269 282.839 197.633 282.985C198.008 283.12 198.316 283.323 198.555 283.594C198.784 283.844 198.956 284.162 199.071 284.547C199.185 284.922 199.243 285.36 199.243 285.86V293.86H201.414V285.875C201.414 285.021 201.31 284.287 201.102 283.672C200.894 283.047 200.602 282.532 200.227 282.125C199.842 281.719 199.378 281.422 198.836 281.235C198.295 281.037 197.691 280.938 197.024 280.938C196.513 280.948 196.034 281.027 195.586 281.172C195.138 281.308 194.727 281.511 194.352 281.782C194.112 281.948 193.888 282.141 193.68 282.36C193.472 282.568 193.279 282.803 193.102 283.063ZM205.317 293.86H210.786C211.504 293.849 212.207 293.735 212.895 293.516C213.582 293.297 214.187 292.98 214.707 292.563C215.228 292.157 215.645 291.652 215.957 291.047C216.27 290.433 216.421 289.73 216.411 288.938C216.411 288.428 216.332 287.954 216.176 287.516C216.03 287.079 215.822 286.683 215.551 286.329C215.291 286.016 214.963 285.73 214.567 285.469C214.171 285.198 213.754 285.011 213.317 284.907V284.875C213.734 284.688 214.088 284.495 214.379 284.297C214.671 284.089 214.942 283.839 215.192 283.547C215.421 283.256 215.603 282.928 215.739 282.563C215.874 282.198 215.947 281.792 215.957 281.344C215.968 280.542 215.817 279.86 215.504 279.297C215.192 278.724 214.775 278.256 214.254 277.891C213.723 277.516 213.119 277.245 212.442 277.079C211.775 276.902 211.093 276.808 210.395 276.797H205.317V293.86ZM207.504 285.875H210.957C211.416 285.896 211.843 285.98 212.239 286.125C212.645 286.261 212.994 286.454 213.286 286.704C213.588 286.974 213.822 287.297 213.989 287.672C214.155 288.047 214.234 288.474 214.223 288.954C214.223 289.433 214.129 289.86 213.942 290.235C213.765 290.61 213.52 290.928 213.207 291.188C212.895 291.448 212.536 291.652 212.129 291.797C211.723 291.933 211.291 292.006 210.832 292.016H207.504V285.875ZM207.504 284.079V278.641H210.457C210.885 278.652 211.296 278.709 211.692 278.813C212.098 278.917 212.457 279.073 212.77 279.282C213.072 279.5 213.317 279.777 213.504 280.11C213.692 280.443 213.786 280.849 213.786 281.329C213.786 281.777 213.692 282.167 213.504 282.5C213.317 282.834 213.067 283.115 212.754 283.344C212.452 283.584 212.103 283.766 211.707 283.891C211.322 284.006 210.926 284.068 210.52 284.079H207.504ZM228.079 293.86H230.344V293.672C230.198 293.318 230.084 292.907 230 292.438C229.928 291.959 229.891 291.511 229.891 291.094V285.204C229.891 284.485 229.761 283.86 229.5 283.329C229.25 282.797 228.901 282.355 228.454 282C227.995 281.646 227.459 281.381 226.844 281.204C226.23 281.027 225.563 280.938 224.844 280.938C224.053 280.938 223.344 281.047 222.719 281.266C222.105 281.485 221.584 281.771 221.157 282.125C220.719 282.49 220.381 282.896 220.141 283.344C219.912 283.782 219.797 284.23 219.797 284.688H221.969C221.969 284.428 222.032 284.178 222.157 283.938C222.292 283.688 222.474 283.469 222.704 283.282C222.943 283.105 223.23 282.964 223.563 282.86C223.907 282.745 224.292 282.688 224.719 282.688C225.188 282.688 225.605 282.75 225.969 282.875C226.344 282.99 226.662 283.152 226.922 283.36C227.172 283.579 227.365 283.839 227.5 284.141C227.646 284.443 227.719 284.787 227.719 285.172V286.172H225.36C224.474 286.172 223.672 286.261 222.954 286.438C222.245 286.605 221.636 286.86 221.125 287.204C220.615 287.558 220.219 287.995 219.938 288.516C219.667 289.037 219.532 289.646 219.532 290.344C219.532 290.875 219.636 291.37 219.844 291.829C220.053 292.287 220.349 292.678 220.735 293C221.11 293.334 221.568 293.599 222.11 293.797C222.651 293.995 223.256 294.094 223.922 294.094C224.339 294.094 224.73 294.047 225.094 293.954C225.469 293.87 225.818 293.756 226.141 293.61C226.464 293.464 226.761 293.292 227.032 293.094C227.303 292.896 227.547 292.688 227.766 292.469C227.787 292.74 227.823 293 227.875 293.25C227.928 293.49 227.995 293.693 228.079 293.86ZM224.25 292.204C223.823 292.204 223.448 292.152 223.125 292.047C222.813 291.933 222.547 291.777 222.329 291.579C222.12 291.391 221.964 291.167 221.86 290.907C221.756 290.636 221.704 290.344 221.704 290.032C221.704 289.709 221.761 289.417 221.875 289.157C222 288.896 222.183 288.672 222.422 288.485C222.745 288.224 223.183 288.032 223.735 287.907C224.297 287.771 224.954 287.704 225.704 287.704H227.719V290.266C227.594 290.516 227.422 290.761 227.204 291C226.985 291.23 226.73 291.433 226.438 291.61C226.136 291.787 225.797 291.933 225.422 292.047C225.058 292.152 224.667 292.204 224.25 292.204ZM242.45 280.938C241.533 280.938 240.71 281.141 239.981 281.547C239.262 281.954 238.648 282.5 238.137 283.188L238.122 282.875L238.028 281.172H235.965V293.86H238.137V285.719C238.283 285.334 238.46 284.985 238.668 284.672C238.887 284.349 239.142 284.079 239.434 283.86C239.757 283.61 240.132 283.422 240.559 283.297C240.986 283.162 241.465 283.094 241.997 283.094C242.413 283.094 242.809 283.12 243.184 283.172C243.569 283.214 243.97 283.282 244.387 283.375L244.684 281.25C244.465 281.157 244.137 281.084 243.7 281.032C243.273 280.969 242.856 280.938 242.45 280.938ZM265.817 295.329L272.926 276.797H270.989L263.864 295.329H265.817ZM277.407 291.547L287.75 287.11V285.391L277.407 280.969V283.204L284.985 286.016L285.688 286.235L284.985 286.438L277.407 289.297V291.547Z" fill="#F9F9F9"/>
<path fill-rule="evenodd" clip-rule="evenodd" d="M769.639 268.457C769.639 263.467 773.684 259.422 778.673 259.422H964.668C967.064 259.422 969.362 260.374 971.056 262.068C972.75 263.763 973.702 266.061 973.702 268.457V304.593C973.702 309.582 969.657 313.627 964.668 313.627H778.673C773.684 313.627 769.639 309.582 769.639 304.593V268.457Z" fill="#4183C4"/>
<path d="M811.596 292.768V290.471L804.424 287.705L803.799 287.486L804.424 287.299L811.596 284.486V282.19L801.659 286.611V288.33L811.596 292.768ZM825.592 287.533V285.69H818.499V279.846H826.78V278.002H816.296V295.065H818.499V287.533H825.592ZM829.901 288.611V288.861C829.901 289.778 830.031 290.627 830.292 291.408C830.562 292.19 830.948 292.867 831.448 293.44C831.937 294.023 832.536 294.481 833.245 294.815C833.964 295.137 834.771 295.299 835.667 295.299C836.562 295.299 837.365 295.137 838.073 294.815C838.781 294.481 839.385 294.023 839.885 293.44C840.385 292.867 840.766 292.19 841.026 291.408C841.297 290.627 841.432 289.778 841.432 288.861V288.611C841.432 287.695 841.297 286.846 841.026 286.065C840.766 285.273 840.385 284.591 839.885 284.018C839.385 283.434 838.776 282.976 838.057 282.643C837.349 282.309 836.547 282.143 835.651 282.143C834.755 282.143 833.953 282.309 833.245 282.643C832.536 282.976 831.937 283.434 831.448 284.018C830.948 284.591 830.562 285.273 830.292 286.065C830.031 286.846 829.901 287.695 829.901 288.611ZM832.057 288.861V288.611C832.057 287.986 832.13 287.393 832.276 286.83C832.432 286.268 832.661 285.768 832.964 285.33C833.266 284.903 833.635 284.565 834.073 284.315C834.521 284.054 835.047 283.924 835.651 283.924C836.255 283.924 836.781 284.054 837.229 284.315C837.677 284.565 838.052 284.903 838.354 285.33C838.656 285.768 838.88 286.268 839.026 286.83C839.182 287.393 839.26 287.986 839.26 288.611V288.861C839.26 289.486 839.182 290.085 839.026 290.658C838.88 291.221 838.661 291.716 838.37 292.143C838.068 292.57 837.687 292.908 837.229 293.158C836.781 293.408 836.26 293.533 835.667 293.533C835.073 293.533 834.547 293.408 834.089 293.158C833.641 292.908 833.266 292.57 832.964 292.143C832.661 291.716 832.432 291.221 832.276 290.658C832.13 290.085 832.057 289.486 832.057 288.861ZM844.303 288.611V288.861C844.303 289.778 844.434 290.627 844.694 291.408C844.965 292.19 845.35 292.867 845.85 293.44C846.34 294.023 846.939 294.481 847.647 294.815C848.366 295.137 849.173 295.299 850.069 295.299C850.965 295.299 851.767 295.137 852.475 294.815C853.184 294.481 853.788 294.023 854.288 293.44C854.788 292.867 855.168 292.19 855.428 291.408C855.699 290.627 855.835 289.778 855.835 288.861V288.611C855.835 287.695 855.699 286.846 855.428 286.065C855.168 285.273 854.788 284.591 854.288 284.018C853.788 283.434 853.178 282.976 852.46 282.643C851.751 282.309 850.949 282.143 850.053 282.143C849.158 282.143 848.355 282.309 847.647 282.643C846.939 282.976 846.34 283.434 845.85 284.018C845.35 284.591 844.965 285.273 844.694 286.065C844.434 286.846 844.303 287.695 844.303 288.611ZM846.46 288.861V288.611C846.46 287.986 846.533 287.393 846.678 286.83C846.835 286.268 847.064 285.768 847.366 285.33C847.668 284.903 848.038 284.565 848.475 284.315C848.923 284.054 849.449 283.924 850.053 283.924C850.658 283.924 851.184 284.054 851.631 284.315C852.079 284.565 852.454 284.903 852.756 285.33C853.059 285.768 853.283 286.268 853.428 286.83C853.585 287.393 853.663 287.986 853.663 288.611V288.861C853.663 289.486 853.585 290.085 853.428 290.658C853.283 291.221 853.064 291.716 852.772 292.143C852.47 292.57 852.09 292.908 851.631 293.158C851.184 293.408 850.663 293.533 850.069 293.533C849.475 293.533 848.949 293.408 848.491 293.158C848.043 292.908 847.668 292.57 847.366 292.143C847.064 291.716 846.835 291.221 846.678 290.658C846.533 290.085 846.46 289.486 846.46 288.861ZM864.44 279.315H862.268V282.377H858.94V284.065H862.268V290.955C862.268 291.736 862.367 292.403 862.565 292.955C862.773 293.497 863.06 293.94 863.424 294.283C863.779 294.637 864.2 294.898 864.69 295.065C865.18 295.221 865.706 295.299 866.268 295.299C866.602 295.299 866.94 295.283 867.284 295.252C867.628 295.221 867.95 295.174 868.253 295.111C868.555 295.059 868.836 294.992 869.096 294.908C869.357 294.825 869.575 294.726 869.753 294.611L869.44 293.08C869.315 293.111 869.148 293.148 868.94 293.19C868.732 293.231 868.508 293.273 868.268 293.315C868.029 293.356 867.784 293.393 867.534 293.424C867.284 293.445 867.044 293.455 866.815 293.455C866.492 293.455 866.185 293.419 865.893 293.346C865.612 293.262 865.362 293.122 865.143 292.924C864.924 292.736 864.753 292.486 864.628 292.174C864.503 291.851 864.44 291.445 864.44 290.955V284.065H869.268V282.377H864.44V279.315ZM879.311 295.299C880.551 295.299 881.587 295.054 882.421 294.565C883.264 294.065 883.894 293.492 884.311 292.846L882.999 291.815C882.592 292.335 882.087 292.752 881.483 293.065C880.889 293.377 880.207 293.533 879.436 293.533C878.842 293.533 878.301 293.424 877.811 293.205C877.332 292.986 876.921 292.684 876.577 292.299C876.243 291.934 875.978 291.518 875.78 291.049C875.592 290.58 875.473 290.039 875.421 289.424V289.346H884.483V288.377C884.483 287.492 884.368 286.669 884.139 285.908C883.921 285.148 883.587 284.486 883.139 283.924C882.681 283.372 882.108 282.94 881.421 282.627C880.743 282.304 879.947 282.143 879.03 282.143C878.301 282.143 877.592 282.294 876.905 282.596C876.217 282.887 875.603 283.315 875.061 283.877C874.509 284.44 874.066 285.127 873.733 285.94C873.41 286.742 873.249 287.653 873.249 288.674V289.174C873.249 290.049 873.394 290.861 873.686 291.611C873.988 292.361 874.405 293.012 874.936 293.565C875.467 294.106 876.108 294.533 876.858 294.846C877.608 295.148 878.426 295.299 879.311 295.299ZM879.03 283.924C879.582 283.924 880.061 284.028 880.467 284.236C880.874 284.434 881.207 284.7 881.467 285.033C881.738 285.356 881.947 285.747 882.092 286.205C882.238 286.653 882.311 287.07 882.311 287.455V287.565H875.499C875.582 286.981 875.728 286.466 875.936 286.018C876.155 285.559 876.421 285.174 876.733 284.861C877.046 284.559 877.394 284.33 877.78 284.174C878.176 284.007 878.592 283.924 879.03 283.924ZM896.417 282.143C895.5 282.143 894.677 282.346 893.948 282.752C893.229 283.158 892.615 283.705 892.104 284.393L892.089 284.08L891.995 282.377H889.932V295.065H892.104V286.924C892.25 286.539 892.427 286.19 892.635 285.877C892.854 285.554 893.109 285.283 893.401 285.065C893.724 284.815 894.099 284.627 894.526 284.502C894.953 284.367 895.432 284.299 895.964 284.299C896.38 284.299 896.776 284.325 897.151 284.377C897.536 284.419 897.937 284.486 898.354 284.58L898.651 282.455C898.432 282.361 898.104 282.289 897.667 282.236C897.24 282.174 896.823 282.143 896.417 282.143ZM919.784 296.533L926.893 278.002H924.956L917.831 296.533H919.784ZM931.374 292.752L941.717 288.315V286.596L931.374 282.174V284.408L938.952 287.221L939.655 287.44L938.952 287.643L931.374 290.502V292.752Z" fill="#F9F9F9"/>
<path fill-rule="evenodd" clip-rule="evenodd" d="M415.748 350.315C415.748 345.325 419.793 341.281 424.782 341.281H631.218C633.614 341.281 635.912 342.232 637.606 343.927C639.3 345.621 640.252 347.919 640.252 350.315V386.451C640.252 391.44 636.207 395.485 631.218 395.485H424.782C419.793 395.485 415.748 391.44 415.748 386.451V350.315Z" fill="#4183C4"/>
<path d="M446.322 374.626V372.329L439.15 369.563L438.525 369.345L439.15 369.157L446.322 366.345V364.048L436.385 368.47V370.188L446.322 374.626ZM459.756 372.61C459.756 373.079 459.652 373.485 459.443 373.829C459.245 374.162 458.985 374.438 458.662 374.657C458.35 374.886 457.985 375.053 457.568 375.157C457.162 375.261 456.745 375.313 456.318 375.313C455.787 375.313 455.298 375.241 454.85 375.095C454.402 374.949 454.006 374.735 453.662 374.454C453.318 374.173 453.037 373.829 452.818 373.423C452.6 373.006 452.454 372.532 452.381 372.001H450.178C450.199 372.73 450.36 373.397 450.662 374.001C450.964 374.595 451.37 375.116 451.881 375.563C452.464 376.074 453.146 376.47 453.928 376.751C454.709 377.022 455.506 377.157 456.318 377.157C457.006 377.157 457.688 377.063 458.365 376.876C459.042 376.678 459.652 376.386 460.193 376.001C460.735 375.626 461.173 375.157 461.506 374.595C461.85 374.022 462.021 373.35 462.021 372.579C462.021 371.829 461.86 371.168 461.537 370.595C461.225 370.011 460.813 369.517 460.303 369.11C459.771 368.683 459.188 368.334 458.553 368.063C457.928 367.782 457.298 367.543 456.662 367.345C456.277 367.23 455.865 367.095 455.428 366.938C455.001 366.782 454.605 366.584 454.24 366.345C453.865 366.116 453.553 365.834 453.303 365.501C453.063 365.157 452.943 364.735 452.943 364.235C452.943 363.787 453.032 363.392 453.209 363.048C453.396 362.704 453.646 362.412 453.959 362.173C454.261 361.944 454.61 361.772 455.006 361.657C455.402 361.532 455.808 361.47 456.225 361.47C456.735 361.47 457.193 361.553 457.6 361.72C458.016 361.876 458.37 362.1 458.662 362.392C458.964 362.683 459.204 363.032 459.381 363.438C459.558 363.834 459.678 364.277 459.74 364.767H461.975C461.954 363.985 461.782 363.282 461.459 362.657C461.146 362.022 460.725 361.48 460.193 361.032C459.662 360.584 459.053 360.241 458.365 360.001C457.678 359.751 456.964 359.626 456.225 359.626C455.548 359.626 454.876 359.73 454.209 359.938C453.553 360.147 452.959 360.449 452.428 360.845C451.907 361.241 451.485 361.73 451.162 362.313C450.839 362.886 450.678 363.543 450.678 364.282C450.678 365.011 450.839 365.647 451.162 366.188C451.485 366.73 451.907 367.204 452.428 367.61C452.928 367.996 453.49 368.329 454.115 368.61C454.74 368.881 455.35 369.116 455.943 369.313C456.36 369.449 456.792 369.6 457.24 369.767C457.688 369.923 458.1 370.126 458.475 370.376C458.85 370.626 459.157 370.933 459.396 371.298C459.636 371.652 459.756 372.09 459.756 372.61ZM470.361 361.173H468.189V364.235H464.861V365.923H468.189V372.813C468.189 373.595 468.288 374.261 468.486 374.813C468.695 375.355 468.981 375.798 469.346 376.142C469.7 376.496 470.122 376.756 470.611 376.923C471.101 377.079 471.627 377.157 472.189 377.157C472.523 377.157 472.861 377.142 473.205 377.11C473.549 377.079 473.872 377.032 474.174 376.97C474.476 376.918 474.757 376.85 475.018 376.767C475.278 376.683 475.497 376.584 475.674 376.47L475.361 374.938C475.236 374.97 475.07 375.006 474.861 375.048C474.653 375.09 474.429 375.131 474.189 375.173C473.95 375.215 473.705 375.251 473.455 375.282C473.205 375.303 472.965 375.313 472.736 375.313C472.413 375.313 472.106 375.277 471.814 375.204C471.533 375.121 471.283 374.98 471.064 374.782C470.846 374.595 470.674 374.345 470.549 374.032C470.424 373.709 470.361 373.303 470.361 372.813V365.923H475.189V364.235H470.361V361.173ZM479.029 370.47V370.72C479.029 371.636 479.16 372.485 479.42 373.267C479.691 374.048 480.076 374.725 480.576 375.298C481.066 375.881 481.665 376.34 482.373 376.673C483.092 376.996 483.899 377.157 484.795 377.157C485.691 377.157 486.493 376.996 487.201 376.673C487.91 376.34 488.514 375.881 489.014 375.298C489.514 374.725 489.894 374.048 490.154 373.267C490.425 372.485 490.561 371.636 490.561 370.72V370.47C490.561 369.553 490.425 368.704 490.154 367.923C489.894 367.131 489.514 366.449 489.014 365.876C488.514 365.293 487.904 364.834 487.186 364.501C486.477 364.168 485.675 364.001 484.779 364.001C483.883 364.001 483.081 364.168 482.373 364.501C481.665 364.834 481.066 365.293 480.576 365.876C480.076 366.449 479.691 367.131 479.42 367.923C479.16 368.704 479.029 369.553 479.029 370.47ZM481.186 370.72V370.47C481.186 369.845 481.258 369.251 481.404 368.688C481.561 368.126 481.79 367.626 482.092 367.188C482.394 366.761 482.764 366.423 483.201 366.173C483.649 365.912 484.175 365.782 484.779 365.782C485.383 365.782 485.91 365.912 486.357 366.173C486.805 366.423 487.18 366.761 487.482 367.188C487.785 367.626 488.008 368.126 488.154 368.688C488.311 369.251 488.389 369.845 488.389 370.47V370.72C488.389 371.345 488.311 371.944 488.154 372.517C488.008 373.079 487.79 373.574 487.498 374.001C487.196 374.428 486.816 374.767 486.357 375.017C485.91 375.267 485.389 375.392 484.795 375.392C484.201 375.392 483.675 375.267 483.217 375.017C482.769 374.767 482.394 374.428 482.092 374.001C481.79 373.574 481.561 373.079 481.404 372.517C481.258 371.944 481.186 371.345 481.186 370.72ZM499.432 375.392C498.755 375.392 498.187 375.261 497.729 375.001C497.27 374.73 496.906 374.376 496.635 373.938C496.354 373.501 496.15 373.011 496.025 372.47C495.911 371.928 495.854 371.381 495.854 370.829V370.329C495.854 369.787 495.911 369.246 496.025 368.704C496.15 368.162 496.354 367.673 496.635 367.235C496.916 366.808 497.286 366.459 497.744 366.188C498.202 365.918 498.765 365.782 499.432 365.782C499.869 365.782 500.275 365.86 500.65 366.017C501.036 366.162 501.364 366.366 501.635 366.626C501.916 366.876 502.135 367.173 502.291 367.517C502.447 367.86 502.531 368.22 502.541 368.595H504.588C504.588 367.959 504.458 367.36 504.197 366.798C503.947 366.235 503.593 365.746 503.135 365.329C502.676 364.923 502.13 364.6 501.494 364.36C500.869 364.121 500.182 364.001 499.432 364.001C498.473 364.001 497.635 364.173 496.916 364.517C496.197 364.86 495.598 365.324 495.119 365.907C494.64 366.491 494.275 367.168 494.025 367.938C493.786 368.699 493.666 369.496 493.666 370.329V370.829C493.666 371.673 493.786 372.475 494.025 373.235C494.275 373.996 494.64 374.668 495.119 375.251C495.598 375.834 496.197 376.298 496.916 376.642C497.635 376.985 498.473 377.157 499.432 377.157C500.109 377.157 500.755 377.043 501.369 376.813C501.984 376.584 502.531 376.272 503.01 375.876C503.489 375.491 503.869 375.043 504.15 374.532C504.442 374.022 504.588 373.485 504.588 372.923H502.541C502.531 373.277 502.437 373.605 502.26 373.907C502.093 374.209 501.864 374.47 501.572 374.688C501.281 374.907 500.947 375.079 500.572 375.204C500.208 375.329 499.827 375.392 499.432 375.392ZM512.24 371.001L516.881 376.923H519.646L513.725 369.532L518.85 364.235H516.225L512.053 368.407L510.646 369.938V358.923H508.459V376.923H510.646V372.532L512.24 371.001ZM522.846 359.86V361.751H526.83V375.048H522.846V376.923H533.158V375.048H529.064V361.751H533.158V359.86H522.846ZM542.373 361.173H540.201V364.235H536.873V365.923H540.201V372.813C540.201 373.595 540.3 374.261 540.498 374.813C540.706 375.355 540.993 375.798 541.357 376.142C541.712 376.496 542.133 376.756 542.623 376.923C543.113 377.079 543.639 377.157 544.201 377.157C544.535 377.157 544.873 377.142 545.217 377.11C545.561 377.079 545.883 377.032 546.186 376.97C546.488 376.918 546.769 376.85 547.029 376.767C547.29 376.683 547.508 376.584 547.686 376.47L547.373 374.938C547.248 374.97 547.081 375.006 546.873 375.048C546.665 375.09 546.441 375.131 546.201 375.173C545.962 375.215 545.717 375.251 545.467 375.282C545.217 375.303 544.977 375.313 544.748 375.313C544.425 375.313 544.118 375.277 543.826 375.204C543.545 375.121 543.295 374.98 543.076 374.782C542.857 374.595 542.686 374.345 542.561 374.032C542.436 373.709 542.373 373.303 542.373 372.813V365.923H547.201V364.235H542.373V361.173ZM557.244 377.157C558.484 377.157 559.52 376.912 560.354 376.423C561.197 375.923 561.827 375.35 562.244 374.704L560.932 373.673C560.525 374.194 560.02 374.61 559.416 374.923C558.822 375.235 558.14 375.392 557.369 375.392C556.775 375.392 556.234 375.282 555.744 375.063C555.265 374.845 554.854 374.543 554.51 374.157C554.176 373.793 553.911 373.376 553.713 372.907C553.525 372.438 553.406 371.897 553.354 371.282V371.204H562.416V370.235C562.416 369.35 562.301 368.527 562.072 367.767C561.854 367.006 561.52 366.345 561.072 365.782C560.614 365.23 560.041 364.798 559.354 364.485C558.676 364.162 557.88 364.001 556.963 364.001C556.234 364.001 555.525 364.152 554.838 364.454C554.15 364.746 553.536 365.173 552.994 365.735C552.442 366.298 551.999 366.985 551.666 367.798C551.343 368.6 551.182 369.511 551.182 370.532V371.032C551.182 371.907 551.327 372.72 551.619 373.47C551.921 374.22 552.338 374.871 552.869 375.423C553.4 375.965 554.041 376.392 554.791 376.704C555.541 377.006 556.359 377.157 557.244 377.157ZM556.963 365.782C557.515 365.782 557.994 365.886 558.4 366.095C558.807 366.293 559.14 366.558 559.4 366.892C559.671 367.215 559.88 367.605 560.025 368.063C560.171 368.511 560.244 368.928 560.244 369.313V369.423H553.432C553.515 368.84 553.661 368.324 553.869 367.876C554.088 367.418 554.354 367.032 554.666 366.72C554.979 366.418 555.327 366.188 555.713 366.032C556.109 365.866 556.525 365.782 556.963 365.782ZM567.037 364.235H565.1V376.923H567.162V366.829C567.204 366.704 567.261 366.59 567.334 366.485C567.417 366.371 567.506 366.272 567.6 366.188C567.735 366.074 567.896 365.991 568.084 365.938C568.282 365.876 568.511 365.845 568.771 365.845C569.001 365.845 569.204 365.876 569.381 365.938C569.558 365.991 569.704 366.079 569.818 366.204C569.943 366.34 570.032 366.511 570.084 366.72C570.146 366.918 570.178 367.152 570.178 367.423V376.923H572.24V367.423C572.24 367.381 572.24 367.345 572.24 367.313C572.24 367.272 572.24 367.23 572.24 367.188C572.271 367.001 572.318 366.829 572.381 366.673C572.454 366.506 572.553 366.36 572.678 366.235C572.803 366.121 572.959 366.027 573.146 365.954C573.334 365.881 573.558 365.845 573.818 365.845C574.058 365.845 574.266 365.876 574.443 365.938C574.631 366.001 574.787 366.095 574.912 366.22C575.037 366.355 575.131 366.527 575.193 366.735C575.256 366.933 575.287 367.162 575.287 367.423V376.923H577.35V367.454C577.35 366.84 577.277 366.308 577.131 365.86C576.995 365.412 576.792 365.048 576.521 364.767C576.282 364.517 575.985 364.329 575.631 364.204C575.277 364.069 574.881 364.001 574.443 364.001C574.131 364.011 573.839 364.058 573.568 364.142C573.298 364.215 573.053 364.319 572.834 364.454C572.657 364.569 572.495 364.704 572.35 364.86C572.204 365.017 572.074 365.183 571.959 365.36C571.876 365.173 571.771 365.001 571.646 364.845C571.532 364.688 571.402 364.553 571.256 364.438C571.048 364.303 570.808 364.199 570.537 364.126C570.266 364.043 569.964 364.001 569.631 364.001C569.037 364.011 568.532 364.142 568.115 364.392C567.699 364.642 567.36 364.991 567.1 365.438L567.037 364.235ZM597.717 378.392L604.826 359.86H602.889L595.764 378.392H597.717ZM609.307 374.61L619.65 370.173V368.454L609.307 364.032V366.267L616.885 369.079L617.588 369.298L616.885 369.501L609.307 372.36V374.61Z" fill="#F9F9F9"/>
<path fill-rule="evenodd" clip-rule="evenodd" d="M415.748 412.391C415.748 407.401 419.793 403.357 424.782 403.357H631.218C633.614 403.357 635.912 404.308 637.606 406.003C639.3 407.697 640.252 409.995 640.252 412.391V448.527C640.252 453.517 636.207 457.561 631.218 457.561H424.782C419.793 457.561 415.748 453.517 415.748 448.527V412.391Z" fill="#4183C4"/>
<path d="M446.322 436.702V434.405L439.15 431.64L438.525 431.421L439.15 431.233L446.322 428.421V426.124L436.385 430.546V432.265L446.322 436.702ZM459.756 434.687C459.756 435.155 459.652 435.562 459.443 435.905C459.245 436.239 458.985 436.515 458.662 436.733C458.35 436.963 457.985 437.129 457.568 437.233C457.162 437.338 456.745 437.39 456.318 437.39C455.787 437.39 455.298 437.317 454.85 437.171C454.402 437.025 454.006 436.812 453.662 436.53C453.318 436.249 453.037 435.905 452.818 435.499C452.6 435.082 452.454 434.608 452.381 434.077H450.178C450.199 434.806 450.36 435.473 450.662 436.077C450.964 436.671 451.37 437.192 451.881 437.64C452.464 438.15 453.146 438.546 453.928 438.827C454.709 439.098 455.506 439.233 456.318 439.233C457.006 439.233 457.688 439.14 458.365 438.952C459.042 438.754 459.652 438.463 460.193 438.077C460.735 437.702 461.173 437.233 461.506 436.671C461.85 436.098 462.021 435.426 462.021 434.655C462.021 433.905 461.86 433.244 461.537 432.671C461.225 432.088 460.813 431.593 460.303 431.187C459.771 430.759 459.188 430.41 458.553 430.14C457.928 429.858 457.298 429.619 456.662 429.421C456.277 429.306 455.865 429.171 455.428 429.015C455.001 428.858 454.605 428.66 454.24 428.421C453.865 428.192 453.553 427.91 453.303 427.577C453.063 427.233 452.943 426.812 452.943 426.312C452.943 425.864 453.032 425.468 453.209 425.124C453.396 424.78 453.646 424.489 453.959 424.249C454.261 424.02 454.61 423.848 455.006 423.733C455.402 423.608 455.808 423.546 456.225 423.546C456.735 423.546 457.193 423.629 457.6 423.796C458.016 423.952 458.37 424.176 458.662 424.468C458.964 424.759 459.204 425.108 459.381 425.515C459.558 425.91 459.678 426.353 459.74 426.843H461.975C461.954 426.062 461.782 425.358 461.459 424.733C461.146 424.098 460.725 423.556 460.193 423.108C459.662 422.66 459.053 422.317 458.365 422.077C457.678 421.827 456.964 421.702 456.225 421.702C455.548 421.702 454.876 421.806 454.209 422.015C453.553 422.223 452.959 422.525 452.428 422.921C451.907 423.317 451.485 423.806 451.162 424.39C450.839 424.963 450.678 425.619 450.678 426.358C450.678 427.088 450.839 427.723 451.162 428.265C451.485 428.806 451.907 429.28 452.428 429.687C452.928 430.072 453.49 430.405 454.115 430.687C454.74 430.957 455.35 431.192 455.943 431.39C456.36 431.525 456.792 431.676 457.24 431.843C457.688 431.999 458.1 432.202 458.475 432.452C458.85 432.702 459.157 433.009 459.396 433.374C459.636 433.728 459.756 434.166 459.756 434.687ZM470.361 423.249H468.189V426.312H464.861V427.999H468.189V434.89C468.189 435.671 468.288 436.338 468.486 436.89C468.695 437.431 468.981 437.874 469.346 438.218C469.7 438.572 470.122 438.832 470.611 438.999C471.101 439.155 471.627 439.233 472.189 439.233C472.523 439.233 472.861 439.218 473.205 439.187C473.549 439.155 473.872 439.108 474.174 439.046C474.476 438.994 474.757 438.926 475.018 438.843C475.278 438.759 475.497 438.66 475.674 438.546L475.361 437.015C475.236 437.046 475.07 437.082 474.861 437.124C474.653 437.166 474.429 437.207 474.189 437.249C473.95 437.291 473.705 437.327 473.455 437.358C473.205 437.379 472.965 437.39 472.736 437.39C472.413 437.39 472.106 437.353 471.814 437.28C471.533 437.197 471.283 437.056 471.064 436.858C470.846 436.671 470.674 436.421 470.549 436.108C470.424 435.785 470.361 435.379 470.361 434.89V427.999H475.189V426.312H470.361V423.249ZM479.029 432.546V432.796C479.029 433.713 479.16 434.562 479.42 435.343C479.691 436.124 480.076 436.801 480.576 437.374C481.066 437.957 481.665 438.416 482.373 438.749C483.092 439.072 483.899 439.233 484.795 439.233C485.691 439.233 486.493 439.072 487.201 438.749C487.91 438.416 488.514 437.957 489.014 437.374C489.514 436.801 489.894 436.124 490.154 435.343C490.425 434.562 490.561 433.713 490.561 432.796V432.546C490.561 431.629 490.425 430.78 490.154 429.999C489.894 429.207 489.514 428.525 489.014 427.952C488.514 427.369 487.904 426.91 487.186 426.577C486.477 426.244 485.675 426.077 484.779 426.077C483.883 426.077 483.081 426.244 482.373 426.577C481.665 426.91 481.066 427.369 480.576 427.952C480.076 428.525 479.691 429.207 479.42 429.999C479.16 430.78 479.029 431.629 479.029 432.546ZM481.186 432.796V432.546C481.186 431.921 481.258 431.327 481.404 430.765C481.561 430.202 481.79 429.702 482.092 429.265C482.394 428.838 482.764 428.499 483.201 428.249C483.649 427.989 484.175 427.858 484.779 427.858C485.383 427.858 485.91 427.989 486.357 428.249C486.805 428.499 487.18 428.838 487.482 429.265C487.785 429.702 488.008 430.202 488.154 430.765C488.311 431.327 488.389 431.921 488.389 432.546V432.796C488.389 433.421 488.311 434.02 488.154 434.593C488.008 435.155 487.79 435.65 487.498 436.077C487.196 436.504 486.816 436.843 486.357 437.093C485.91 437.343 485.389 437.468 484.795 437.468C484.201 437.468 483.675 437.343 483.217 437.093C482.769 436.843 482.394 436.504 482.092 436.077C481.79 435.65 481.561 435.155 481.404 434.593C481.258 434.02 481.186 433.421 481.186 432.796ZM499.432 437.468C498.755 437.468 498.187 437.338 497.729 437.077C497.27 436.806 496.906 436.452 496.635 436.015C496.354 435.577 496.15 435.088 496.025 434.546C495.911 434.004 495.854 433.457 495.854 432.905V432.405C495.854 431.864 495.911 431.322 496.025 430.78C496.15 430.239 496.354 429.749 496.635 429.312C496.916 428.884 497.286 428.535 497.744 428.265C498.202 427.994 498.765 427.858 499.432 427.858C499.869 427.858 500.275 427.937 500.65 428.093C501.036 428.239 501.364 428.442 501.635 428.702C501.916 428.952 502.135 429.249 502.291 429.593C502.447 429.937 502.531 430.296 502.541 430.671H504.588C504.588 430.035 504.458 429.437 504.197 428.874C503.947 428.312 503.593 427.822 503.135 427.405C502.676 426.999 502.13 426.676 501.494 426.437C500.869 426.197 500.182 426.077 499.432 426.077C498.473 426.077 497.635 426.249 496.916 426.593C496.197 426.937 495.598 427.4 495.119 427.983C494.64 428.567 494.275 429.244 494.025 430.015C493.786 430.775 493.666 431.572 493.666 432.405V432.905C493.666 433.749 493.786 434.551 494.025 435.312C494.275 436.072 494.64 436.744 495.119 437.327C495.598 437.91 496.197 438.374 496.916 438.718C497.635 439.062 498.473 439.233 499.432 439.233C500.109 439.233 500.755 439.119 501.369 438.89C501.984 438.66 502.531 438.348 503.01 437.952C503.489 437.567 503.869 437.119 504.15 436.608C504.442 436.098 504.588 435.562 504.588 434.999H502.541C502.531 435.353 502.437 435.681 502.26 435.983C502.093 436.285 501.864 436.546 501.572 436.765C501.281 436.983 500.947 437.155 500.572 437.28C500.208 437.405 499.827 437.468 499.432 437.468ZM512.24 433.077L516.881 438.999H519.646L513.725 431.608L518.85 426.312H516.225L512.053 430.483L510.646 432.015V420.999H508.459V438.999H510.646V434.608L512.24 433.077ZM522.846 421.937V423.827H526.83V437.124H522.846V438.999H533.158V437.124H529.064V423.827H533.158V421.937H522.846ZM542.373 423.249H540.201V426.312H536.873V427.999H540.201V434.89C540.201 435.671 540.3 436.338 540.498 436.89C540.706 437.431 540.993 437.874 541.357 438.218C541.712 438.572 542.133 438.832 542.623 438.999C543.113 439.155 543.639 439.233 544.201 439.233C544.535 439.233 544.873 439.218 545.217 439.187C545.561 439.155 545.883 439.108 546.186 439.046C546.488 438.994 546.769 438.926 547.029 438.843C547.29 438.759 547.508 438.66 547.686 438.546L547.373 437.015C547.248 437.046 547.081 437.082 546.873 437.124C546.665 437.166 546.441 437.207 546.201 437.249C545.962 437.291 545.717 437.327 545.467 437.358C545.217 437.379 544.977 437.39 544.748 437.39C544.425 437.39 544.118 437.353 543.826 437.28C543.545 437.197 543.295 437.056 543.076 436.858C542.857 436.671 542.686 436.421 542.561 436.108C542.436 435.785 542.373 435.379 542.373 434.89V427.999H547.201V426.312H542.373V423.249ZM557.244 439.233C558.484 439.233 559.52 438.989 560.354 438.499C561.197 437.999 561.827 437.426 562.244 436.78L560.932 435.749C560.525 436.27 560.02 436.687 559.416 436.999C558.822 437.312 558.14 437.468 557.369 437.468C556.775 437.468 556.234 437.358 555.744 437.14C555.265 436.921 554.854 436.619 554.51 436.233C554.176 435.869 553.911 435.452 553.713 434.983C553.525 434.515 553.406 433.973 553.354 433.358V433.28H562.416V432.312C562.416 431.426 562.301 430.603 562.072 429.843C561.854 429.082 561.52 428.421 561.072 427.858C560.614 427.306 560.041 426.874 559.354 426.562C558.676 426.239 557.88 426.077 556.963 426.077C556.234 426.077 555.525 426.228 554.838 426.53C554.15 426.822 553.536 427.249 552.994 427.812C552.442 428.374 551.999 429.062 551.666 429.874C551.343 430.676 551.182 431.588 551.182 432.608V433.108C551.182 433.983 551.327 434.796 551.619 435.546C551.921 436.296 552.338 436.947 552.869 437.499C553.4 438.041 554.041 438.468 554.791 438.78C555.541 439.082 556.359 439.233 557.244 439.233ZM556.963 427.858C557.515 427.858 557.994 427.963 558.4 428.171C558.807 428.369 559.14 428.634 559.4 428.968C559.671 429.291 559.88 429.681 560.025 430.14C560.171 430.588 560.244 431.004 560.244 431.39V431.499H553.432C553.515 430.916 553.661 430.4 553.869 429.952C554.088 429.494 554.354 429.108 554.666 428.796C554.979 428.494 555.327 428.265 555.713 428.108C556.109 427.942 556.525 427.858 556.963 427.858ZM567.037 426.312H565.1V438.999H567.162V428.905C567.204 428.78 567.261 428.666 567.334 428.562C567.417 428.447 567.506 428.348 567.6 428.265C567.735 428.15 567.896 428.067 568.084 428.015C568.282 427.952 568.511 427.921 568.771 427.921C569.001 427.921 569.204 427.952 569.381 428.015C569.558 428.067 569.704 428.155 569.818 428.28C569.943 428.416 570.032 428.588 570.084 428.796C570.146 428.994 570.178 429.228 570.178 429.499V438.999H572.24V429.499C572.24 429.457 572.24 429.421 572.24 429.39C572.24 429.348 572.24 429.306 572.24 429.265C572.271 429.077 572.318 428.905 572.381 428.749C572.454 428.582 572.553 428.437 572.678 428.312C572.803 428.197 572.959 428.103 573.146 428.03C573.334 427.957 573.558 427.921 573.818 427.921C574.058 427.921 574.266 427.952 574.443 428.015C574.631 428.077 574.787 428.171 574.912 428.296C575.037 428.431 575.131 428.603 575.193 428.812C575.256 429.009 575.287 429.239 575.287 429.499V438.999H577.35V429.53C577.35 428.916 577.277 428.384 577.131 427.937C576.995 427.489 576.792 427.124 576.521 426.843C576.282 426.593 575.985 426.405 575.631 426.28C575.277 426.145 574.881 426.077 574.443 426.077C574.131 426.088 573.839 426.134 573.568 426.218C573.298 426.291 573.053 426.395 572.834 426.53C572.657 426.645 572.495 426.78 572.35 426.937C572.204 427.093 572.074 427.259 571.959 427.437C571.876 427.249 571.771 427.077 571.646 426.921C571.532 426.765 571.402 426.629 571.256 426.515C571.048 426.379 570.808 426.275 570.537 426.202C570.266 426.119 569.964 426.077 569.631 426.077C569.037 426.088 568.532 426.218 568.115 426.468C567.699 426.718 567.36 427.067 567.1 427.515L567.037 426.312ZM597.717 440.468L604.826 421.937H602.889L595.764 440.468H597.717ZM609.307 436.687L619.65 432.249V430.53L609.307 426.108V428.343L616.885 431.155L617.588 431.374L616.885 431.577L609.307 434.437V436.687Z" fill="#F9F9F9"/>
<path fill-rule="evenodd" clip-rule="evenodd" d="M415.748 474.467C415.748 469.478 419.793 465.433 424.782 465.433H631.218C633.614 465.433 635.912 466.385 637.606 468.079C639.3 469.773 640.252 472.071 640.252 474.467V510.603C640.252 515.593 636.207 519.637 631.218 519.637H424.782C419.793 519.637 415.748 515.593 415.748 510.603V474.467Z" fill="#4183C4"/>
<path d="M446.322 498.778V496.481L439.15 493.716L438.525 493.497L439.15 493.309L446.322 490.497V488.2L436.385 492.622V494.341L446.322 498.778ZM459.756 496.763C459.756 497.231 459.652 497.638 459.443 497.981C459.245 498.315 458.985 498.591 458.662 498.809C458.35 499.039 457.985 499.205 457.568 499.309C457.162 499.414 456.745 499.466 456.318 499.466C455.787 499.466 455.298 499.393 454.85 499.247C454.402 499.101 454.006 498.888 453.662 498.606C453.318 498.325 453.037 497.981 452.818 497.575C452.6 497.158 452.454 496.684 452.381 496.153H450.178C450.199 496.882 450.36 497.549 450.662 498.153C450.964 498.747 451.37 499.268 451.881 499.716C452.464 500.226 453.146 500.622 453.928 500.903C454.709 501.174 455.506 501.309 456.318 501.309C457.006 501.309 457.688 501.216 458.365 501.028C459.042 500.83 459.652 500.539 460.193 500.153C460.735 499.778 461.173 499.309 461.506 498.747C461.85 498.174 462.021 497.502 462.021 496.731C462.021 495.981 461.86 495.32 461.537 494.747C461.225 494.164 460.813 493.669 460.303 493.263C459.771 492.835 459.188 492.487 458.553 492.216C457.928 491.934 457.298 491.695 456.662 491.497C456.277 491.382 455.865 491.247 455.428 491.091C455.001 490.934 454.605 490.737 454.24 490.497C453.865 490.268 453.553 489.987 453.303 489.653C453.063 489.309 452.943 488.888 452.943 488.388C452.943 487.94 453.032 487.544 453.209 487.2C453.396 486.856 453.646 486.565 453.959 486.325C454.261 486.096 454.61 485.924 455.006 485.809C455.402 485.684 455.808 485.622 456.225 485.622C456.735 485.622 457.193 485.705 457.6 485.872C458.016 486.028 458.37 486.252 458.662 486.544C458.964 486.835 459.204 487.184 459.381 487.591C459.558 487.987 459.678 488.429 459.74 488.919H461.975C461.954 488.138 461.782 487.434 461.459 486.809C461.146 486.174 460.725 485.632 460.193 485.184C459.662 484.737 459.053 484.393 458.365 484.153C457.678 483.903 456.964 483.778 456.225 483.778C455.548 483.778 454.876 483.882 454.209 484.091C453.553 484.299 452.959 484.601 452.428 484.997C451.907 485.393 451.485 485.882 451.162 486.466C450.839 487.039 450.678 487.695 450.678 488.434C450.678 489.164 450.839 489.799 451.162 490.341C451.485 490.882 451.907 491.356 452.428 491.763C452.928 492.148 453.49 492.481 454.115 492.763C454.74 493.033 455.35 493.268 455.943 493.466C456.36 493.601 456.792 493.752 457.24 493.919C457.688 494.075 458.1 494.278 458.475 494.528C458.85 494.778 459.157 495.085 459.396 495.45C459.636 495.804 459.756 496.242 459.756 496.763ZM470.361 485.325H468.189V488.388H464.861V490.075H468.189V496.966C468.189 497.747 468.288 498.414 468.486 498.966C468.695 499.507 468.981 499.95 469.346 500.294C469.7 500.648 470.122 500.908 470.611 501.075C471.101 501.231 471.627 501.309 472.189 501.309C472.523 501.309 472.861 501.294 473.205 501.263C473.549 501.231 473.872 501.184 474.174 501.122C474.476 501.07 474.757 501.002 475.018 500.919C475.278 500.835 475.497 500.737 475.674 500.622L475.361 499.091C475.236 499.122 475.07 499.158 474.861 499.2C474.653 499.242 474.429 499.283 474.189 499.325C473.95 499.367 473.705 499.403 473.455 499.434C473.205 499.455 472.965 499.466 472.736 499.466C472.413 499.466 472.106 499.429 471.814 499.356C471.533 499.273 471.283 499.132 471.064 498.934C470.846 498.747 470.674 498.497 470.549 498.184C470.424 497.862 470.361 497.455 470.361 496.966V490.075H475.189V488.388H470.361V485.325ZM479.029 494.622V494.872C479.029 495.789 479.16 496.638 479.42 497.419C479.691 498.2 480.076 498.877 480.576 499.45C481.066 500.033 481.665 500.492 482.373 500.825C483.092 501.148 483.899 501.309 484.795 501.309C485.691 501.309 486.493 501.148 487.201 500.825C487.91 500.492 488.514 500.033 489.014 499.45C489.514 498.877 489.894 498.2 490.154 497.419C490.425 496.638 490.561 495.789 490.561 494.872V494.622C490.561 493.705 490.425 492.856 490.154 492.075C489.894 491.283 489.514 490.601 489.014 490.028C488.514 489.445 487.904 488.987 487.186 488.653C486.477 488.32 485.675 488.153 484.779 488.153C483.883 488.153 483.081 488.32 482.373 488.653C481.665 488.987 481.066 489.445 480.576 490.028C480.076 490.601 479.691 491.283 479.42 492.075C479.16 492.856 479.029 493.705 479.029 494.622ZM481.186 494.872V494.622C481.186 493.997 481.258 493.403 481.404 492.841C481.561 492.278 481.79 491.778 482.092 491.341C482.394 490.914 482.764 490.575 483.201 490.325C483.649 490.065 484.175 489.934 484.779 489.934C485.383 489.934 485.91 490.065 486.357 490.325C486.805 490.575 487.18 490.914 487.482 491.341C487.785 491.778 488.008 492.278 488.154 492.841C488.311 493.403 488.389 493.997 488.389 494.622V494.872C488.389 495.497 488.311 496.096 488.154 496.669C488.008 497.231 487.79 497.726 487.498 498.153C487.196 498.58 486.816 498.919 486.357 499.169C485.91 499.419 485.389 499.544 484.795 499.544C484.201 499.544 483.675 499.419 483.217 499.169C482.769 498.919 482.394 498.58 482.092 498.153C481.79 497.726 481.561 497.231 481.404 496.669C481.258 496.096 481.186 495.497 481.186 494.872ZM499.432 499.544C498.755 499.544 498.187 499.414 497.729 499.153C497.27 498.882 496.906 498.528 496.635 498.091C496.354 497.653 496.15 497.164 496.025 496.622C495.911 496.08 495.854 495.533 495.854 494.981V494.481C495.854 493.94 495.911 493.398 496.025 492.856C496.15 492.315 496.354 491.825 496.635 491.388C496.916 490.96 497.286 490.612 497.744 490.341C498.202 490.07 498.765 489.934 499.432 489.934C499.869 489.934 500.275 490.013 500.65 490.169C501.036 490.315 501.364 490.518 501.635 490.778C501.916 491.028 502.135 491.325 502.291 491.669C502.447 492.013 502.531 492.372 502.541 492.747H504.588C504.588 492.112 504.458 491.513 504.197 490.95C503.947 490.388 503.593 489.898 503.135 489.481C502.676 489.075 502.13 488.752 501.494 488.513C500.869 488.273 500.182 488.153 499.432 488.153C498.473 488.153 497.635 488.325 496.916 488.669C496.197 489.013 495.598 489.476 495.119 490.059C494.64 490.643 494.275 491.32 494.025 492.091C493.786 492.851 493.666 493.648 493.666 494.481V494.981C493.666 495.825 493.786 496.627 494.025 497.388C494.275 498.148 494.64 498.82 495.119 499.403C495.598 499.987 496.197 500.45 496.916 500.794C497.635 501.138 498.473 501.309 499.432 501.309C500.109 501.309 500.755 501.195 501.369 500.966C501.984 500.737 502.531 500.424 503.01 500.028C503.489 499.643 503.869 499.195 504.15 498.684C504.442 498.174 504.588 497.638 504.588 497.075H502.541C502.531 497.429 502.437 497.757 502.26 498.059C502.093 498.362 501.864 498.622 501.572 498.841C501.281 499.059 500.947 499.231 500.572 499.356C500.208 499.481 499.827 499.544 499.432 499.544ZM512.24 495.153L516.881 501.075H519.646L513.725 493.684L518.85 488.388H516.225L512.053 492.559L510.646 494.091V483.075H508.459V501.075H510.646V496.684L512.24 495.153ZM522.846 484.013V485.903H526.83V499.2H522.846V501.075H533.158V499.2H529.064V485.903H533.158V484.013H522.846ZM542.373 485.325H540.201V488.388H536.873V490.075H540.201V496.966C540.201 497.747 540.3 498.414 540.498 498.966C540.706 499.507 540.993 499.95 541.357 500.294C541.712 500.648 542.133 500.908 542.623 501.075C543.113 501.231 543.639 501.309 544.201 501.309C544.535 501.309 544.873 501.294 545.217 501.263C545.561 501.231 545.883 501.184 546.186 501.122C546.488 501.07 546.769 501.002 547.029 500.919C547.29 500.835 547.508 500.737 547.686 500.622L547.373 499.091C547.248 499.122 547.081 499.158 546.873 499.2C546.665 499.242 546.441 499.283 546.201 499.325C545.962 499.367 545.717 499.403 545.467 499.434C545.217 499.455 544.977 499.466 544.748 499.466C544.425 499.466 544.118 499.429 543.826 499.356C543.545 499.273 543.295 499.132 543.076 498.934C542.857 498.747 542.686 498.497 542.561 498.184C542.436 497.862 542.373 497.455 542.373 496.966V490.075H547.201V488.388H542.373V485.325ZM557.244 501.309C558.484 501.309 559.52 501.065 560.354 500.575C561.197 500.075 561.827 499.502 562.244 498.856L560.932 497.825C560.525 498.346 560.02 498.763 559.416 499.075C558.822 499.388 558.14 499.544 557.369 499.544C556.775 499.544 556.234 499.434 555.744 499.216C555.265 498.997 554.854 498.695 554.51 498.309C554.176 497.945 553.911 497.528 553.713 497.059C553.525 496.591 553.406 496.049 553.354 495.434V495.356H562.416V494.388C562.416 493.502 562.301 492.679 562.072 491.919C561.854 491.158 561.52 490.497 561.072 489.934C560.614 489.382 560.041 488.95 559.354 488.638C558.676 488.315 557.88 488.153 556.963 488.153C556.234 488.153 555.525 488.304 554.838 488.606C554.15 488.898 553.536 489.325 552.994 489.888C552.442 490.45 551.999 491.138 551.666 491.95C551.343 492.752 551.182 493.664 551.182 494.684V495.184C551.182 496.059 551.327 496.872 551.619 497.622C551.921 498.372 552.338 499.023 552.869 499.575C553.4 500.117 554.041 500.544 554.791 500.856C555.541 501.158 556.359 501.309 557.244 501.309ZM556.963 489.934C557.515 489.934 557.994 490.039 558.4 490.247C558.807 490.445 559.14 490.71 559.4 491.044C559.671 491.367 559.88 491.757 560.025 492.216C560.171 492.664 560.244 493.08 560.244 493.466V493.575H553.432C553.515 492.992 553.661 492.476 553.869 492.028C554.088 491.57 554.354 491.184 554.666 490.872C554.979 490.57 555.327 490.341 555.713 490.184C556.109 490.018 556.525 489.934 556.963 489.934ZM567.037 488.388H565.1V501.075H567.162V490.981C567.204 490.856 567.261 490.742 567.334 490.638C567.417 490.523 567.506 490.424 567.6 490.341C567.735 490.226 567.896 490.143 568.084 490.091C568.282 490.028 568.511 489.997 568.771 489.997C569.001 489.997 569.204 490.028 569.381 490.091C569.558 490.143 569.704 490.231 569.818 490.356C569.943 490.492 570.032 490.664 570.084 490.872C570.146 491.07 570.178 491.304 570.178 491.575V501.075H572.24V491.575C572.24 491.533 572.24 491.497 572.24 491.466C572.24 491.424 572.24 491.382 572.24 491.341C572.271 491.153 572.318 490.981 572.381 490.825C572.454 490.658 572.553 490.513 572.678 490.388C572.803 490.273 572.959 490.179 573.146 490.106C573.334 490.033 573.558 489.997 573.818 489.997C574.058 489.997 574.266 490.028 574.443 490.091C574.631 490.153 574.787 490.247 574.912 490.372C575.037 490.507 575.131 490.679 575.193 490.888C575.256 491.085 575.287 491.315 575.287 491.575V501.075H577.35V491.606C577.35 490.992 577.277 490.46 577.131 490.013C576.995 489.565 576.792 489.2 576.521 488.919C576.282 488.669 575.985 488.481 575.631 488.356C575.277 488.221 574.881 488.153 574.443 488.153C574.131 488.164 573.839 488.21 573.568 488.294C573.298 488.367 573.053 488.471 572.834 488.606C572.657 488.721 572.495 488.856 572.35 489.013C572.204 489.169 572.074 489.335 571.959 489.513C571.876 489.325 571.771 489.153 571.646 488.997C571.532 488.841 571.402 488.705 571.256 488.591C571.048 488.455 570.808 488.351 570.537 488.278C570.266 488.195 569.964 488.153 569.631 488.153C569.037 488.164 568.532 488.294 568.115 488.544C567.699 488.794 567.36 489.143 567.1 489.591L567.037 488.388ZM597.717 502.544L604.826 484.013H602.889L595.764 502.544H597.717ZM609.307 498.763L619.65 494.325V492.606L609.307 488.184V490.419L616.885 493.231L617.588 493.45L616.885 493.653L609.307 496.513V498.763Z" fill="#F9F9F9"/>
<path d="M528 107.304V143.651" stroke="#555B69" stroke-width="2" stroke-miterlimit="10" stroke-linejoin="round"/>
<path fill-rule="evenodd" clip-rule="evenodd" d="M524.697 143.651L528 152.727L531.303 143.651H524.697Z" fill="#555B69" stroke="#555B69" stroke-width="2" stroke-miterlimit="10"/>
<path d="M528 209.863V246.21" stroke="#555B69" stroke-width="2" stroke-miterlimit="10" stroke-linejoin="round"/>
<path fill-rule="evenodd" clip-rule="evenodd" d="M524.697 246.21L528 255.286L531.303 246.21H524.697Z" fill="#555B69" stroke="#555B69" stroke-width="2" stroke-miterlimit="10"/>
<path d="M528 209.863V234.04H196.094V246.21" stroke="#555B69" stroke-width="2" stroke-miterlimit="10" stroke-linejoin="round"/>
<path fill-rule="evenodd" clip-rule="evenodd" d="M192.791 246.21L196.094 255.286L199.398 246.21H192.791Z" fill="#555B69" stroke="#555B69" stroke-width="2" stroke-miterlimit="10"/>
<path fill-rule="evenodd" clip-rule="evenodd" d="M415.748 267.252C415.748 262.262 419.793 258.218 424.782 258.218H631.218C633.614 258.218 635.912 259.169 637.606 260.864C639.3 262.558 640.252 264.856 640.252 267.252V303.388C640.252 308.377 636.207 312.422 631.218 312.422H424.782C419.793 312.422 415.748 308.377 415.748 303.388V267.252Z" fill="#4183C4"/>
<path d="M446.322 291.563V289.266L439.15 286.5L438.525 286.282L439.15 286.094L446.322 283.282V280.985L436.385 285.407V287.125L446.322 291.563ZM459.756 289.547C459.756 290.016 459.652 290.422 459.443 290.766C459.245 291.099 458.985 291.375 458.662 291.594C458.35 291.823 457.985 291.99 457.568 292.094C457.162 292.198 456.745 292.25 456.318 292.25C455.787 292.25 455.298 292.178 454.85 292.032C454.402 291.886 454.006 291.672 453.662 291.391C453.318 291.11 453.037 290.766 452.818 290.36C452.6 289.943 452.454 289.469 452.381 288.938H450.178C450.199 289.667 450.36 290.334 450.662 290.938C450.964 291.532 451.37 292.053 451.881 292.5C452.464 293.011 453.146 293.407 453.928 293.688C454.709 293.959 455.506 294.094 456.318 294.094C457.006 294.094 457.688 294 458.365 293.813C459.042 293.615 459.652 293.323 460.193 292.938C460.735 292.563 461.173 292.094 461.506 291.532C461.85 290.959 462.021 290.287 462.021 289.516C462.021 288.766 461.86 288.105 461.537 287.532C461.225 286.948 460.813 286.454 460.303 286.047C459.771 285.62 459.188 285.271 458.553 285C457.928 284.719 457.298 284.48 456.662 284.282C456.277 284.167 455.865 284.032 455.428 283.875C455.001 283.719 454.605 283.521 454.24 283.282C453.865 283.053 453.553 282.771 453.303 282.438C453.063 282.094 452.943 281.672 452.943 281.172C452.943 280.724 453.032 280.329 453.209 279.985C453.396 279.641 453.646 279.349 453.959 279.11C454.261 278.881 454.61 278.709 455.006 278.594C455.402 278.469 455.808 278.407 456.225 278.407C456.735 278.407 457.193 278.49 457.6 278.657C458.016 278.813 458.37 279.037 458.662 279.329C458.964 279.62 459.204 279.969 459.381 280.375C459.558 280.771 459.678 281.214 459.74 281.704H461.975C461.954 280.922 461.782 280.219 461.459 279.594C461.146 278.959 460.725 278.417 460.193 277.969C459.662 277.521 459.053 277.178 458.365 276.938C457.678 276.688 456.964 276.563 456.225 276.563C455.548 276.563 454.876 276.667 454.209 276.875C453.553 277.084 452.959 277.386 452.428 277.782C451.907 278.178 451.485 278.667 451.162 279.25C450.839 279.823 450.678 280.48 450.678 281.219C450.678 281.948 450.839 282.584 451.162 283.125C451.485 283.667 451.907 284.141 452.428 284.547C452.928 284.933 453.49 285.266 454.115 285.547C454.74 285.818 455.35 286.053 455.943 286.25C456.36 286.386 456.792 286.537 457.24 286.704C457.688 286.86 458.1 287.063 458.475 287.313C458.85 287.563 459.157 287.87 459.396 288.235C459.636 288.589 459.756 289.027 459.756 289.547ZM470.361 278.11H468.189V281.172H464.861V282.86H468.189V289.75C468.189 290.532 468.288 291.198 468.486 291.75C468.695 292.292 468.981 292.735 469.346 293.079C469.7 293.433 470.122 293.693 470.611 293.86C471.101 294.016 471.627 294.094 472.189 294.094C472.523 294.094 472.861 294.079 473.205 294.047C473.549 294.016 473.872 293.969 474.174 293.907C474.476 293.855 474.757 293.787 475.018 293.704C475.278 293.62 475.497 293.521 475.674 293.407L475.361 291.875C475.236 291.907 475.07 291.943 474.861 291.985C474.653 292.027 474.429 292.068 474.189 292.11C473.95 292.152 473.705 292.188 473.455 292.219C473.205 292.24 472.965 292.25 472.736 292.25C472.413 292.25 472.106 292.214 471.814 292.141C471.533 292.058 471.283 291.917 471.064 291.719C470.846 291.532 470.674 291.282 470.549 290.969C470.424 290.646 470.361 290.24 470.361 289.75V282.86H475.189V281.172H470.361V278.11ZM479.029 287.407V287.657C479.029 288.573 479.16 289.422 479.42 290.204C479.691 290.985 480.076 291.662 480.576 292.235C481.066 292.818 481.665 293.277 482.373 293.61C483.092 293.933 483.899 294.094 484.795 294.094C485.691 294.094 486.493 293.933 487.201 293.61C487.91 293.277 488.514 292.818 489.014 292.235C489.514 291.662 489.894 290.985 490.154 290.204C490.425 289.422 490.561 288.573 490.561 287.657V287.407C490.561 286.49 490.425 285.641 490.154 284.86C489.894 284.068 489.514 283.386 489.014 282.813C488.514 282.23 487.904 281.771 487.186 281.438C486.477 281.105 485.675 280.938 484.779 280.938C483.883 280.938 483.081 281.105 482.373 281.438C481.665 281.771 481.066 282.23 480.576 282.813C480.076 283.386 479.691 284.068 479.42 284.86C479.16 285.641 479.029 286.49 479.029 287.407ZM481.186 287.657V287.407C481.186 286.782 481.258 286.188 481.404 285.625C481.561 285.063 481.79 284.563 482.092 284.125C482.394 283.698 482.764 283.36 483.201 283.11C483.649 282.849 484.175 282.719 484.779 282.719C485.383 282.719 485.91 282.849 486.357 283.11C486.805 283.36 487.18 283.698 487.482 284.125C487.785 284.563 488.008 285.063 488.154 285.625C488.311 286.188 488.389 286.782 488.389 287.407V287.657C488.389 288.282 488.311 288.881 488.154 289.454C488.008 290.016 487.79 290.511 487.498 290.938C487.196 291.365 486.816 291.704 486.357 291.954C485.91 292.204 485.389 292.329 484.795 292.329C484.201 292.329 483.675 292.204 483.217 291.954C482.769 291.704 482.394 291.365 482.092 290.938C481.79 290.511 481.561 290.016 481.404 289.454C481.258 288.881 481.186 288.282 481.186 287.657ZM499.432 292.329C498.755 292.329 498.187 292.198 497.729 291.938C497.27 291.667 496.906 291.313 496.635 290.875C496.354 290.438 496.15 289.948 496.025 289.407C495.911 288.865 495.854 288.318 495.854 287.766V287.266C495.854 286.724 495.911 286.183 496.025 285.641C496.15 285.099 496.354 284.61 496.635 284.172C496.916 283.745 497.286 283.396 497.744 283.125C498.202 282.855 498.765 282.719 499.432 282.719C499.869 282.719 500.275 282.797 500.65 282.954C501.036 283.099 501.364 283.303 501.635 283.563C501.916 283.813 502.135 284.11 502.291 284.454C502.447 284.797 502.531 285.157 502.541 285.532H504.588C504.588 284.896 504.458 284.297 504.197 283.735C503.947 283.172 503.593 282.683 503.135 282.266C502.676 281.86 502.13 281.537 501.494 281.297C500.869 281.058 500.182 280.938 499.432 280.938C498.473 280.938 497.635 281.11 496.916 281.454C496.197 281.797 495.598 282.261 495.119 282.844C494.64 283.428 494.275 284.105 494.025 284.875C493.786 285.636 493.666 286.433 493.666 287.266V287.766C493.666 288.61 493.786 289.412 494.025 290.172C494.275 290.933 494.64 291.605 495.119 292.188C495.598 292.771 496.197 293.235 496.916 293.579C497.635 293.922 498.473 294.094 499.432 294.094C500.109 294.094 500.755 293.98 501.369 293.75C501.984 293.521 502.531 293.209 503.01 292.813C503.489 292.428 503.869 291.98 504.15 291.469C504.442 290.959 504.588 290.422 504.588 289.86H502.541C502.531 290.214 502.437 290.542 502.26 290.844C502.093 291.146 501.864 291.407 501.572 291.625C501.281 291.844 500.947 292.016 500.572 292.141C500.208 292.266 499.827 292.329 499.432 292.329ZM512.24 287.938L516.881 293.86H519.646L513.725 286.469L518.85 281.172H516.225L512.053 285.344L510.646 286.875V275.86H508.459V293.86H510.646V289.469L512.24 287.938ZM525.283 292.016V276.797H523.127V293.86H533.627V292.016H525.283ZM537.576 281.172V283.063H541.889V291.985H537.576V293.86H548.201V291.985H544.061V281.172H537.576ZM541.607 277.844C541.607 278.198 541.717 278.495 541.936 278.735C542.154 278.964 542.482 279.079 542.92 279.079C543.347 279.079 543.67 278.964 543.889 278.735C544.107 278.495 544.217 278.198 544.217 277.844C544.217 277.657 544.186 277.48 544.123 277.313C544.061 277.146 543.967 277.011 543.842 276.907C543.738 276.803 543.607 276.724 543.451 276.672C543.295 276.61 543.118 276.579 542.92 276.579C542.712 276.579 542.524 276.61 542.357 276.672C542.201 276.724 542.076 276.803 541.982 276.907C541.857 277.021 541.764 277.162 541.701 277.329C541.639 277.485 541.607 277.657 541.607 277.844ZM560.072 290.5C560.072 290.698 560.031 290.891 559.947 291.079C559.874 291.256 559.765 291.417 559.619 291.563C559.369 291.803 559.031 291.99 558.604 292.125C558.176 292.261 557.671 292.329 557.088 292.329C556.723 292.329 556.354 292.292 555.979 292.219C555.604 292.136 555.265 292 554.963 291.813C554.65 291.625 554.39 291.381 554.182 291.079C553.973 290.777 553.854 290.402 553.822 289.954H551.65C551.65 290.495 551.775 291.016 552.025 291.516C552.275 292.016 552.635 292.454 553.104 292.829C553.562 293.214 554.124 293.521 554.791 293.75C555.468 293.98 556.234 294.094 557.088 294.094C557.838 294.094 558.531 294.006 559.166 293.829C559.801 293.641 560.343 293.386 560.791 293.063C561.249 292.73 561.604 292.334 561.854 291.875C562.114 291.417 562.244 290.907 562.244 290.344C562.244 289.823 562.13 289.365 561.9 288.969C561.682 288.563 561.359 288.209 560.932 287.907C560.515 287.605 559.994 287.349 559.369 287.141C558.755 286.922 558.057 286.73 557.275 286.563C556.682 286.448 556.192 286.329 555.807 286.204C555.421 286.079 555.114 285.938 554.885 285.782C554.656 285.625 554.494 285.454 554.4 285.266C554.307 285.068 554.26 284.844 554.26 284.594C554.26 284.344 554.317 284.11 554.432 283.891C554.546 283.662 554.723 283.459 554.963 283.282C555.192 283.115 555.479 282.98 555.822 282.875C556.166 282.771 556.572 282.719 557.041 282.719C557.479 282.719 557.874 282.782 558.229 282.907C558.593 283.032 558.9 283.198 559.15 283.407C559.4 283.605 559.593 283.839 559.729 284.11C559.874 284.37 559.947 284.636 559.947 284.907H562.104C562.104 284.355 561.984 283.839 561.744 283.36C561.515 282.87 561.182 282.448 560.744 282.094C560.307 281.73 559.775 281.448 559.15 281.25C558.525 281.042 557.822 280.938 557.041 280.938C556.312 280.938 555.645 281.037 555.041 281.235C554.437 281.433 553.916 281.698 553.479 282.032C553.041 282.365 552.697 282.761 552.447 283.219C552.208 283.667 552.088 284.146 552.088 284.657C552.088 285.178 552.202 285.636 552.432 286.032C552.671 286.428 553.005 286.771 553.432 287.063C553.859 287.355 554.369 287.61 554.963 287.829C555.567 288.037 556.229 288.214 556.947 288.36C557.541 288.474 558.036 288.605 558.432 288.75C558.838 288.896 559.161 289.058 559.4 289.235C559.64 289.402 559.812 289.589 559.916 289.797C560.02 290.006 560.072 290.24 560.072 290.5ZM571.178 278.11H569.006V281.172H565.678V282.86H569.006V289.75C569.006 290.532 569.105 291.198 569.303 291.75C569.511 292.292 569.798 292.735 570.162 293.079C570.516 293.433 570.938 293.693 571.428 293.86C571.917 294.016 572.443 294.094 573.006 294.094C573.339 294.094 573.678 294.079 574.021 294.047C574.365 294.016 574.688 293.969 574.99 293.907C575.292 293.855 575.574 293.787 575.834 293.704C576.094 293.62 576.313 293.521 576.49 293.407L576.178 291.875C576.053 291.907 575.886 291.943 575.678 291.985C575.469 292.027 575.245 292.068 575.006 292.11C574.766 292.152 574.521 292.188 574.271 292.219C574.021 292.24 573.782 292.25 573.553 292.25C573.23 292.25 572.923 292.214 572.631 292.141C572.35 292.058 572.1 291.917 571.881 291.719C571.662 291.532 571.49 291.282 571.365 290.969C571.24 290.646 571.178 290.24 571.178 289.75V282.86H576.006V281.172H571.178V278.11ZM597.717 295.329L604.826 276.797H602.889L595.764 295.329H597.717ZM609.307 291.547L619.65 287.11V285.391L609.307 280.969V283.204L616.885 286.016L617.588 286.235L616.885 286.438L609.307 289.297V291.547Z" fill="#F9F9F9"/>
<path d="M528 209.863V234.076H871.685V247.406" stroke="#555B69" stroke-width="2" stroke-miterlimit="10" stroke-linejoin="round"/>
<path fill-rule="evenodd" clip-rule="evenodd" d="M868.382 247.406L871.685 256.483L874.989 247.406H868.382Z" fill="#555B69" stroke="#555B69" stroke-width="2" stroke-miterlimit="10"/>
<path d="M528 312.422V330.252H390.748V430.47H403.748" stroke="#555B69" stroke-width="2" stroke-miterlimit="10" stroke-linejoin="round"/>
<path fill-rule="evenodd" clip-rule="evenodd" d="M403.748 433.773L412.824 430.469L403.748 427.166V433.773Z" fill="#555B69" stroke="#555B69" stroke-width="2" stroke-miterlimit="10"/>
</svg>
